<svg xmlns="http://www.w3.org/2000/svg" xmlns:xlink="http://www.w3.org/1999/xlink" viewBox="0 0 500.31602 500.21231">
  <defs>
    <style>
      .f99d9733-0791-4bd7-84ea-fb8e41958f13 {
        fill: url(#be3be66d-4b5d-4988-8f9e-d6b50b6b084e);
      }

      .ba98299d-dfec-40e7-94ea-e7f31da0a761 {
        font-size: 19px;
        letter-spacing: 0.09997em;
      }

      .ae3c2465-8187-4324-97fb-6682f29177ac, .ba98299d-dfec-40e7-94ea-e7f31da0a761 {
        font-family: TimesNewRomanPSMT, Times New Roman;
      }

      .ae3c2465-8187-4324-97fb-6682f29177ac {
        font-size: 6px;
        letter-spacing: 0.40007em;
      }

      .a56d6b8c-fa83-407c-abc4-21aef7d70019 {
        letter-spacing: 0.35026em;
      }

      .af5f43bf-fde1-4fe1-8e28-ccf8eb9a065d {
        letter-spacing: 0.3999em;
      }

      .b34db9ef-3eaf-4cfa-a154-e57702f63b8c {
        letter-spacing: 0.41227em;
      }

      .bf75e81d-69a1-4e84-9114-39734b412c68 {
        fill: none;
        stroke: #999;
        stroke-miterlimit: 10;
        stroke-width: 0.5px;
      }

      .a77a26af-caf0-4c05-83bc-cf10d37b5999 {
        fill: #1a1a1a;
      }
    </style>
    <linearGradient id="be3be66d-4b5d-4988-8f9e-d6b50b6b084e" data-name="Безымянный градиент 116" x1="250.14154" y1="500.21231" x2="250.14154" y2="0.21231" gradientUnits="userSpaceOnUse">
      <stop offset="0" stop-color="#dbdbdb"/>
      <stop offset="0.17039" stop-color="#f7f7f7"/>
      <stop offset="0.51676" stop-color="#dbdbdb"/>
      <stop offset="0.60536" stop-color="#e1e1e1"/>
      <stop offset="0.72482" stop-color="#f2f2f2"/>
      <stop offset="0.74022" stop-color="#f5f5f5"/>
      <stop offset="0.79837" stop-color="#f1f1f1"/>
      <stop offset="0.86035" stop-color="#e4e4e4"/>
      <stop offset="0.92408" stop-color="#cfcfcf"/>
      <stop offset="0.98867" stop-color="#b1b1b1"/>
      <stop offset="1" stop-color="#ababab"/>
    </linearGradient>
  </defs>
  <title>seti_svg</title>
  <g id="a32200c9-62c0-4e76-a01b-73d8b9d9a608" data-name="Градиент">
    <rect class="f99d9733-0791-4bd7-84ea-fb8e41958f13" x="0.14154" y="0.21231" width="500" height="500"/>
    <rect x="246.14154" y="299.46731" width="81" height="0.5"/>
  </g>
  <g id="ad502dac-b919-4753-8329-97ecb4491366" data-name="Текст">
    <text class="ba98299d-dfec-40e7-94ea-e7f31da0a761" transform="translate(245.49994 286.06094)">GEOGRACE</text>
    <text class="ae3c2465-8187-4324-97fb-6682f29177ac" transform="translate(314.49994 296.06094)">ГЕ<tspan class="a56d6b8c-fa83-407c-abc4-21aef7d70019" x="11.93359" y="0">О</tspan><tspan class="af5f43bf-fde1-4fe1-8e28-ccf8eb9a065d" x="18.36816" y="0">Д</tspan><tspan class="b34db9ef-3eaf-4cfa-a154-e57702f63b8c" x="24.86035" y="0">Е</tspan><tspan x="30.99902" y="0">ЗИЯ</tspan></text>
  </g>
  <g id="b57f1bbe-b29d-49ce-8187-462a7512a26c" data-name="Линии">
    <line class="bf75e81d-69a1-4e84-9114-39734b412c68" x1="155.64154" y1="147.71231" x2="0.14154" y2="73.21231"/>
    <polyline class="bf75e81d-69a1-4e84-9114-39734b412c68" points="0.142 78.932 152.902 146.502 155.642 147.712"/>
    <polyline class="bf75e81d-69a1-4e84-9114-39734b412c68" points="201.642 184.712 218.642 140.712 223.642 127.712 234.642 98.712 239.642 85.712 267.642 12.712 253.142 75.212 250.142 89.212 242.642 120.712 236.142 151.712 234.642 157.712 232.642 166.712 227.142 190.712 220.142 219.212 220.142 221.712 210.642 261.712 210.642 261.712"/>
    <path class="bf75e81d-69a1-4e84-9114-39734b412c68" d="M353.93,0,288.67,63.5l-1.55,1.51-1.11,1.09-.69.67-.01.01-.85.82-36.65,35.67-1.08,1.05-.49.48-.94.91h-.01l-1.07,1.05-20.37,19.83-.01.01-.49.47-1.29,1.26-29.33,28.54-.86.84-.02.02-.97.94-1.09,1.06-1.08,1.05-1,.97-1.09,1.07L173,176.07l-1.83,1.78-.67.65-.03.01-.74.3-.73.29-.13.05-1.4.56-.21.09-1.14.45-1.38.55-1.41.57-14.46,5.78-.93.37-1.55.63h-.01l-2.1.84h-.02l-.93.38-.44.18-.24.09-.53.21-1.07.43-1.4.56-2.84,1.14-.92.37-1.25.49h-.01l-.78.32-1.67.67-.93.37-9.05,3.62-1.22.49-.44.17-.12.05h-.01l-.56.23-.29.12-.31.12-1.66.66-.4.16s0,.01-.01,0l-1.13.46-2.47.99-.93.37-1.29.52-.08.03-.93.37-11.9,4.76-1.25.5-.69.28-.72.29-.1.03-.82.33h-.01l-.85.35-1.42.56-6.38,2.56-3.3,1.32-2.25.9L0,246.7" transform="translate(0.14154 0.21231)"/>
    <polyline class="bf75e81d-69a1-4e84-9114-39734b412c68" points="353.342 0.212 255.052 74.642 253.642 75.712 252.922 76.222 252.022 76.872 241.672 84.262 240.452 85.132 239.642 85.712 238.832 86.302 237.622 87.182 216.632 102.532 213.642 104.712 211.802 106.082 158.052 145.922 155.642 147.712 157.552 145.402 265.732 15.022 267.642 12.712 266.122 15.302 215.502 101.542 213.642 104.712 212.482 106.712 208.932 112.812 208.172 114.122 207.332 115.562 207.332 115.572 206.712 116.642 205.942 117.962 185.762 152.692 185.002 153.992 184.022 155.682 183.512 156.562 183.432 156.692 182.782 157.822 182.752 157.872 182.432 158.422 182.122 158.962 181.462 160.092 172.402 175.692 171.172 177.802 170.642 178.712 169.422 178.032 168.782 177.672 168.342 177.422 168.332 177.422 167.592 177.012 167.112 176.742 166.222 176.242 165.522 175.852 164.602 175.342 164.392 175.222 162.802 174.332 137.422 160.162 136.132 159.442 135.032 158.822 132.912 157.642 132.292 157.292 124.622 153.012 124.032 152.682 121.352 151.192 113.072 146.562 112.692 146.352 112.122 146.032 111.352 145.602 108.072 143.772 94.892 136.412 94.502 136.192 93.642 135.712 93.562 135.672 91.012 134.242 90.102 133.732 89.682 133.502 86.002 131.442 59.512 116.642 59.502 116.632 59.482 116.622 59.272 116.512 57.972 115.772 56.232 114.802 54.922 114.072 53.562 113.312 50.782 111.762 50.772 111.752 49.272 110.922 40.992 106.292 37.432 104.302 0.142 83.462"/>
    <polyline class="bf75e81d-69a1-4e84-9114-39734b412c68" points="0.642 229.712 47.642 205.212 66.142 194.212 79.142 188.212 84.142 185.212 98.142 178.712 155.642 147.712 50.642 111.712 0.642 94.712"/>
    <path class="bf75e81d-69a1-4e84-9114-39734b412c68" d="M0,96.33l1.22.41,3.53,1.18,1.36.45.09.03L8,99l1.45.48,25.75,8.59,4.4,1.47c0-.01.01,0,.01,0l4,1.33,1.89.63,1.88.68,1.19.43.05.03.84.3,2.68.97s.01.01.01,0l2.36.87,1.55.56.44.16,1.04.34h.01l1.56.5.23.07.02.01.01.01,93.28,30.15,2.85.92-2.95-.56L94.8,136.06l-.44-.08-1.09-.2-2.74-.52-.75-.14-.39-.08h-.01l-.38-.07-1.3-.25h-.01l-1.19-.22-.41-.09L84,133.94l-26.19-5.92-1.49-.33-.82-.19-1.58-.29-.02-.01-.39-.07-1.5-.28-.03-.01-1.95-.36-2.96-.55-25.33-4.72-.31-.06-1.25-.24-2.61-.48-1.56-.29-1.23-.23-.43-.08h-.01l-3.33-.62v-.01l-8.09-1.5-1.49-.28-.44-.08L0,117.15" transform="translate(0.14154 0.21231)"/>
    <path class="bf75e81d-69a1-4e84-9114-39734b412c68" d="M0,142.58l10.5.33,1.53.05,1.01.03,2.46.08,1.51.05,3.91.12,2.06.07,11.04.35,1.51.04,1.49.05.6.02.86.03.32.01.7.02.49.01,3.01.1.27.01,12.25.39,1.48.04.08.01.87.02h.01l.93.03.15.01h.22l.02.01,1.17.03.14.01,1.41.04.88.03.5.01,1.55.05.22.01,3.84.12,7.01.22,1.5.05,1.6.05,1.39.05,1.5.04,11.01.35,2.75.09,2.24.07,9.05.29h.01l2.89.09,1.07.03.91.03.63.02.43.01,39.53,1.26,2.99.09-2.96.47-28.05,4.41-.6.09-1.53.24-1.8.28-3.6.57-1.97.31-.34.05h-.01l-1.62.26-1.98.31L101,156.07l-1.53.24-1.47.23-.8.13-.49.07-.15.03-1.38.22h-.01l-.08.01-1.35.21-.76.12-2.17.34-.08.01-.74.12-.47.07-2.25.36-.16.02H87.1l-1.11.18-.94.15-.96.15-1.03.16-15.45,2.43-1.06.17h-.01l-1.11.17-.1.02-.37.06-.69.1-1.06.17H63.2l-.03.01h-.01l-.16.02-.8.13-.21.03-1,.16-.55.09h-.01l-.79.12h-.01l-.69.11-.77.12-.13.02-.87.14-.17.03-.42.06-1.07.17-4.02.63-3.05.48-1.86.3L12.41,170l-1.55.24-1.36.22L0,171.95" transform="translate(0.14154 0.21231)"/>
    <path class="bf75e81d-69a1-4e84-9114-39734b412c68" d="M0,85.88,35.46,105.4l1.77.97,1.71.95,1.21.66.56.31,3.34,1.84,3.39,1.86,1.13.62.05.03,1.08.59a.00979.00979,0,0,0,.01.01l1.25.7c.01,0,.02.01.04.01L54.71,116l2.67,1.47,27.09,14.91,1.77.98.26.14,1.45.78,1.06.56.37.2h.01l.34.19.99.53,1.36.73,1.71.91,13.39,7.18,2.76,1.48,1.61.86,9.09,4.87,1.72.92,1.77.95,7.88,4.22.25.13,1.87,1.01,1.65.88.98.53,25.85,13.84,1.66.89.24.13.75.41h.01l.79.42.87.47.49.26.8.43h.01l.39.21.68.37,1.2.64-1.14-.5-.87-.38-.15-.07-1.04-.46-.6-.26-.7-.31-1.27-.56-2.23-.98-29.65-13.05-.92-.4-1.35-.59-2.27-1-.93-.41-10.52-4.63-1.87-.82-.34-.16h-.01l-1.37-.6-1.87-.82-13.61-5.99-2.04-.9-2.54-1.12L57.43,128.75l-1.44-.63-2.07-.91-.02-.01-.4-.18-1.44-.63-.07-.03-4.07-1.8-2.82-1.24-.02-.01-.43-.18-3.59-1.59h-.01L0,103.48" transform="translate(0.14154 0.21231)"/>
    <path class="bf75e81d-69a1-4e84-9114-39734b412c68" d="M-.04,133.93l.04.01,34.22,8.94,1.48.39,1.33.35.59.15.88.23.19.05,1.28.33.2.06.35.09,1.47.38.79.21.7.18,31.13,8.14,2.04.53.83.22.59.15,1.46.38,2.47.65.41.11,1.46.38.83.22,2.32.6,2,.52.93.25.8.21.06.01,1.95.51,8.31,2.17.97.26.97.25,1.24.33h.01l.67.17.97.26.97.25,12.85,3.36,1.95.51.83.21,40.54,10.6,2.06.54.1.02.75.2.36.1.81.21.98.25h.01l.01.01.4.1.95.25.67.18.36.09-1.05-.32-.96-.29h-.01l-.27-.08-.26-.08-.8-.24-.95-.29h-.01l-.01-.01-.54-.16-.62-.19-2.23-.68-37.91-11.48-.8-.24-.41-.12-1.41-.43-1.2-.36-14.79-4.48-3.08-.93-2.51-.77-1.49-.45L98,156.54l-1.27-.38-.22-.07-.4-.12-.38-.11s.01-.01,0-.01l-.49-.14-.21-.07-.56-.17-1-.3-1.55-.47-2.23-.68h-.01l-19.86-6.01-1.44-.44-.37-.11-.02-.01-2.46-.74-1.44-.44-.1-.03-2.23-.67-1-.3-.02-.01-.5-.15-1.14-.35-.35-.1-.8-.25-.92-.28h-.02l-1.49-.45L29.85,135.9l-3.34-1.01-2.39-.72L0,126.86" transform="translate(0.14154 0.21231)"/>
    <path class="bf75e81d-69a1-4e84-9114-39734b412c68" d="M0,155.38l39.08,5.3,1.1.15,3.16.43.19.02,1.11.15,3.09.42,3.07.42h.01l4.69.64,1.08.14.43.06.22.03,1,.14.27.03.43.06,1.11.15.39.06.09.01h.01l.5.07.07.01h.01l1.26.17.48.06.03.01,2.11.28.99.14,2.18.29.07.01,1.18.16h.01l.15.03h.01l.54.07,2.87.39,28.01,3.8h.01l1,.13,1.06.15,1.73.23h.01l.46.06.02.01.57.07,1.01.14h.02l1.03.14.02.01,2.19.29,1.47.2h.01l.95.14h.01l1.42.19,3.11.42,1,.13,1.58.22.73.1.37.05,1.22.16,1,.14,41.15,5.58,1.18.16,1.71.23,1.37.19.23.03.89.12.87.12h.02l.03.01" transform="translate(0.14154 0.21231)"/>
    <path class="bf75e81d-69a1-4e84-9114-39734b412c68" d="M170.5,178.5h-.06l-.83.04-.83.04-.13.01-1.64.07-.32.02h-.01l-1.05.04-.43.02c-.01-.01-.01,0-.01,0l-1.95.09-28.25,1.3-1.05.05-2.91.13-3.36.16-.74.03-.39.02h-.02l-1,.05-.31.01-.84.04-1.34.06-12.05.56-3.1.14-.89.04-1.47.07h-.01l-.46.02-1.04.05-7.27.33-1,.05-.78.03-.71.04-.99.04-.26.01-2.02.1-.95.04-.99.05h-.01l-2.01.09-5.55.25-1.53.07-1.02.05-.88.04-1.53.07-12.04.55-1.58.08-.76.03-.98.05-1.57.07L0,186.34" transform="translate(0.14154 0.21231)"/>
    <polyline class="bf75e81d-69a1-4e84-9114-39734b412c68" points="215.642 332.712 155.642 147.712 202.642 257.712 202.642 257.712 235.642 338.712 241.642 353.712"/>
    <polyline class="bf75e81d-69a1-4e84-9114-39734b412c68" points="185.642 213.712 155.642 147.712 171.642 178.712 190.642 215.712 201.142 185.712"/>
    <path class="bf75e81d-69a1-4e84-9114-39734b412c68" d="M0,135.13l10.88,6.56,2.16,1.3,2.02,1.22.09.06L39.26,158.8l.86.52,3.22,1.94.13.08.88.53,2.27,1.37,1.82,1.09,2.35,1.42,26.19,15.79,1.29.78.65.39,1.02.62,1.3.78,1.04.63,1.08.64v.01l.59.35,1.09.66,6.91,4.17,1.55.93.24.15,2.49,1.48,14.09,8.41.94.56.1.06.91.54.94.56,11.46,6.84,1.11.66.62.37,1.39.83,1.11.66,20.47,12.22,2.18,1.29,1.24.75,33.37,19.9v.01l.35.2,1.56.93.11.07,2.59,1.55,8.3,4.95.93.55,1.28.77.38.22.29.17.08.05.33.2.08.05.07.04.4.24.79.47.19.11,1.11.66,3.6,2.15,1.94,1.16.14.08,1.82,1.09-3.98-1.84-3.75-1.74-.84-.39-1.24-.57-1.54-.71-.7-.33c-.02,0-.03-.01-.04-.01l-.06-.04-.47-.21a.00979.00979,0,0,0-.01-.01l-7.64-3.53-2.91-1.35-1.62-.75-44.96-20.81-1.58-.74-.85-.39-1.41-.66-1.59-.73L99.34,210.11l-.99-.45-.86-.4v-.01l-.22-.1-.56-.26-.43-.19-.42-.2-.17-.08-.87-.4-1.62-.75L68.4,195.79l-1.95-.9-1.09-.51-.33-.15-1.95-.91-10.31-4.77L50.5,187.5l1.95,1.57,7.74,6.21.98.79.57.46,1.35,1.08.98.79,10.23,8.22.81.65,1.63,1.31,4.19,3.37,1.98,1.59,2.66,2.13,23.05,18.51.78.63,2.1,1.69.12.1.88.71.78.63,96.43,78.31.71.58,1.54,1.25.04.03.79.65,20.48,16.62,1.09.89.35.28,2.34,1.91.86.7,19.56,15.88,1.06.86,1.19.96.01.01.77.63-.79-.62-.02-.01-1.15-.89-1.12-.87-19.75-15.37-1.21-.93-1.23-.96-1.47-1.15-.73-.57-20.3-15.78-1.57-1.22-.78-.61L107.53,238.53" transform="translate(0.14154 0.21231)"/>
    <polyline class="bf75e81d-69a1-4e84-9114-39734b412c68" points="107.642 238.712 107.672 238.742 304.072 442.052 304.782 442.782 305.452 443.482 305.602 443.642 306.072 444.122 306.082 444.132 306.112 444.162 306.642 444.712"/>
    <path class="bf75e81d-69a1-4e84-9114-39734b412c68" d="M483.5,239.5l-3.46-.97-36.36-10.19-2.04-.58-.68-.19-.9-.25-2.04-.57L337.77,198.64l-1.62-.46-.14-.04-46.25-12.97-1.98-.55-.88-.25-.89-.25-1.97-.55-12.64-3.55-1.87-.52-1-.28-6.98-1.96-1.71-.48-.85-.24-.8-.22-.17-.05-.04-.01-.91-.26-1.05-.29-19.8-5.56-2.41-.67-.35-.1-1.52-.43-.22-.06-.21-.06-.14-.04-1.74-.49-.92-.26-.39-.11-.98-.27-.36-.1h-.01l-.38-.11-.23-.06-.04-.02L225,167l-12.41-3.48-1.02-.29-1.16-.32-.51-.14-.73-.21-1.15-.32-1.02-.29-8.08-2.27-.96-.27-2.54-.71-1.3-.36-.96-.27-1.14-.32-.15-.04-.27-.08c-.01,0-.01-.01-.02-.01l-4.86-1.36-1.48-.42-1.36-.37-1.37-.39-1.49-.42-22.64-6.35-2.88-.81,2.55-1.58,46.64-29.01,1.3-.81,1.2-.74v-.01l1.24-.77,1.3-.81,21.59-13.42,1.95-1.21,1.18-.74.11-.07,1.83-1.13,11.81-7.34,1.87-1.17,1.5-.93,32.77-20.38.97-.6.01-.01.74-.46,1.65-1.02,1.71-1.07,29.29-18.21,1.35-.84,2.86-1.78,12.13-7.54.65-.41,1.75-1.09L392.7,0" transform="translate(0.14154 0.21231)"/>
    <line class="bf75e81d-69a1-4e84-9114-39734b412c68" x1="396.64154" y1="0.71231" x2="189.64154" y2="215.71231"/>
    <path class="bf75e81d-69a1-4e84-9114-39734b412c68" d="M355.13,0,336.5,34h-.01l-.79,1.44-.46.85c-.01.01,0,.01,0,.01L325.53,54l-1.27,2.32-.01.01L300.84,99.04l-.54,1-.01.01-.28.51c-.01.01,0,.01,0,.01l-.21.36-.01.02-.34.62L283.7,130.31l-.48.88-.6,1.09-.01.01-.11.21-.72,1.3-.49.89-12.65,22.8-.49.88-.75,1.35-1.18,2.12-.48.88-6.31,11.36v.01l-.19.35-1.05,1.88-.03.05-.08.16c-.01.01,0,.01,0,.01l-.41.72-.02.05-.01.01-.31.56-.6,1.08-.49.89-2.41,4.33-.49.89-.71,1.28-.24.44-.49.88L249.5,192l-.97,1.75-.95,1.7-.48.88-.25.44-.36.65-1.08,1.95-.33.59-.4.73-.42.75-.57,1.03-8.5,15.33-.86,1.53-.19.35-.53.96-.35.64-.5.89-1.06,1.9-1.35,2.44-16.2,29.22-1.08,1.94-.51.92-.5.91-.55.99" transform="translate(0.14154 0.21231)"/>
    <path class="bf75e81d-69a1-4e84-9114-39734b412c68" d="M160.5,287.5l1.7,1.83L303.94,441.82l.55.59.05.06.1.1.66.71.2.22-.03-.06-.01-.01-.09-.2-.91-1.81-41.62-83.24L262,356.5l-.31-.62-.02-.03v-.01l-.17-.34-.51-1v-.01l-.84-1.67-15.66-30.98v-.02l-.87-1.72v-.01l-27.65-54.75-1.08-2.13-.07-.15-.85-1.68-.66-1.3-.38-.76-.24-.48-.13-.25-.43-.86-.12-.23-.38-.75-.15-.29-.81-1.57v-.01l-3.75-7.32-1.25-2.44-13.51-26.37L191,216.48l-.5-.98-.26-.5.8-1.05v-.01l.01-.01.19-.23.03-.03.03-.04.48-.64,15.93-20.85,1.17-1.53.1-.13.58-.75.77-1.02.4-.52,1.22-1.59,1.38-1.8,6.9-9.03,1.19-1.56.2-.26.43-.57,1.19-1.55,2.51-3.28.68-.89v-.01l.07-.09.09-.11.82-1.08.43-.56.33-.43,5.62-7.35.61-.8.25-.33.05-.05v-.01l.6-.79.81-1.06,1.01-1.33c0-.01.01-.01.02-.02l.73-.95.01-.01.86-1.13.18-.23.73-.95.4-.54.01-.01.2-.25.91-1.19,50.54-66.13.15-.19,1.53-2,25.63-33.53,1.04-1.36,1.9-2.48L354.59,0" transform="translate(0.14154 0.21231)"/>
    <polyline class="bf75e81d-69a1-4e84-9114-39734b412c68" points="211.642 260.712 211.652 260.702 212.362 259.702 212.832 259.052 213.572 258.022 214.572 256.622 236.352 226.232 237.042 225.252 238.662 222.992 239.562 221.742 240.552 220.362 241.272 219.362 250.962 205.822 251.552 205.012 252.212 204.082 252.712 203.392 253.292 202.582 256.212 198.502 257.542 196.652 258.142 195.812 258.362 195.502 258.482 195.342 259.692 193.642 259.912 193.342 260.812 192.092 260.982 191.842 262.092 190.292 263.312 188.592 268.992 180.662 269.672 179.712 270.672 178.322 279.662 165.782 280.502 164.592 280.512 164.592 280.522 164.572 284.652 158.812 285.832 157.162 286.472 156.262 286.482 156.262 286.942 155.612 288.122 153.962 310.502 122.732 312.192 120.372 313.992 117.852 398.282 0.212"/>
    <polyline class="bf75e81d-69a1-4e84-9114-39734b412c68" points="394.642 0.712 326.722 54.682 324.402 56.532 324.392 56.532 324.392 56.542 294.122 80.592 293.302 81.242 292.642 81.762 292.002 82.272 291.832 82.412 245.432 119.282 243.872 120.522 242.442 121.652 242.312 121.762 240.742 123.012 220.212 139.322 218.722 140.502 216.312 142.422 198.072 156.922 197.262 157.552 195.562 158.912 194.282 159.932 193.472 160.572 192.942 160.992 192.102 161.662 191.572 162.082 190.642 162.822 188.912 164.192 173.372 176.542 171.352 178.152 170.642 178.712 171.462 178.372 173.872 177.382 199.702 166.732 201.422 166.022 204.242 164.862 207.452 163.542 208.382 163.162 209.312 162.772 210.272 162.382 211.122 162.032 212.062 161.642 212.982 161.262 233.232 152.922 234.172 152.532 236.142 151.722 236.142 151.712 237.762 151.052 238.252 150.852 238.712 150.662 239.652 150.272 240.192 150.042 240.542 149.902 241.932 149.332 258.452 142.522 260.542 141.662 261.202 141.392 261.882 141.112 263.972 140.242 280.282 133.522 281.212 133.142 282.752 132.502 283.952 132.012 284.892 131.622 309.442 121.512 312.192 120.372 314.972 119.232 481.752 50.492 483.642 49.712 481.832 50.732 301.202 152.832 299.642 153.712 298.412 154.412 280.542 164.582 280.502 164.592 279.392 165.232 261.862 175.202 260.142 176.182 259.132 176.752 258.722 176.992 258.392 177.172 257.842 177.492 257.792 177.522 257.092 177.912 256.172 178.442 255.282 178.942 248.442 182.842 246.382 184.012 244.972 184.812 236.012 189.912 233.942 191.082 231.742 192.332 228.432 194.212 226.762 195.172 225.932 195.642 225.782 195.722 225.622 195.812 224.112 196.672 193.082 214.322 190.642 215.712 193.352 214.832 221.212 205.842 222.172 205.532 223.612 205.062 225.932 204.322 226.882 204.012 237.202 200.682 238.162 200.372 239.192 200.032 240.032 199.762 240.992 199.452 243.192 198.742 244.652 198.272 246.632 197.632 247.392 197.392 248.842 196.922 252.242 195.822 253.192 195.512 254.482 195.102 255.092 194.902 255.512 194.762 256.042 194.592 257.672 194.062 259.422 193.502 259.912 193.342 261.442 192.852 262.452 192.522 264.682 191.802 265.342 191.592 265.852 191.422 268.092 190.702 284.402 185.432 286.342 184.812 286.642 184.712 287.042 184.582 288.142 184.212 290.072 183.582 499.162 114.532 500.142 114.212"/>
    <polyline class="bf75e81d-69a1-4e84-9114-39734b412c68" points="500.142 114.012 499.142 114.202 499.142 114.212 301.642 153.312 299.642 153.712 298.422 153.952 289.102 155.752 287.132 156.132 286.472 156.262 285.192 156.512 283.222 156.892 270.042 159.452 269.052 159.642 267.542 159.932 265.152 160.392 264.172 160.582 239.612 165.342 237.792 165.702 235.682 166.112 234.642 166.312 234.122 166.412 232.642 166.692 231.342 166.952 230.832 167.052 229.132 167.372 228.862 167.432 227.752 167.642 227.112 167.772 226.742 167.842 226.582 167.872 226.572 167.872 225.352 168.112 215.632 169.992 214.132 170.282 212.742 170.552 212.242 170.652 210.752 170.942 208.992 171.282 206.702 171.722 206.652 171.732 205.442 171.972 203.152 172.412 174.082 178.042 171.552 178.532 170.642 178.712"/>
    <polyline class="bf75e81d-69a1-4e84-9114-39734b412c68" points="210.642 261.712 210.822 261.622 211.852 261.102 213.452 260.292 215.152 259.442 269.662 231.972 270.572 231.512 273.022 230.272 283.282 225.102 285.992 223.742 288.562 222.442 294.432 219.492 296.442 218.472 297.232 218.072 297.772 217.802 299.782 216.792 310.522 211.382 311.432 210.922 312.242 210.512 313.132 210.062 314.042 209.602 316.962 208.132 318.142 207.542 319.582 206.812 336.172 198.452 336.292 198.392 337.642 197.712 337.912 197.572 499.572 115.762 500.142 115.472"/>
    <polyline class="bf75e81d-69a1-4e84-9114-39734b412c68" points="155.642 147.712 265.642 191.712 436.642 260.712"/>
    <polyline class="bf75e81d-69a1-4e84-9114-39734b412c68" points="170.642 178.712 318.142 207.539 483.642 239.712 285.642 223.712 191.142 216.69 271.642 231.712 437.642 261.712 168.626 178.102"/>
    <polyline class="bf75e81d-69a1-4e84-9114-39734b412c68" points="212.642 261.712 482.642 239.712 305.642 444.712 436.642 261.712 260.607 356.712"/>
    <polyline class="bf75e81d-69a1-4e84-9114-39734b412c68" points="483.642 239.712 258.642 357.712 431.642 269.712 499.642 234.712"/>
    <polyline class="bf75e81d-69a1-4e84-9114-39734b412c68" points="500.142 255.042 308.222 442.052 306.782 443.452 306.452 443.772 306.082 444.132 306.002 444.212"/>
    <line class="bf75e81d-69a1-4e84-9114-39734b412c68" x1="436.14154" y1="261.44123" x2="215.00947" y2="261.71231"/>
    <polyline class="bf75e81d-69a1-4e84-9114-39734b412c68" points="500.142 219.082 444.132 227.332 442.042 227.642 441.102 227.782 440.402 227.882 438.312 228.192 431.642 229.182 430.392 229.362 428.702 229.612 405.132 233.052 403.892 233.232 403.732 233.252 402.432 233.442 401.182 233.622 379.112 236.852 378.112 236.992 377.932 237.022 376.152 237.282 375.152 237.422 367.052 238.612 365.762 238.792 364.502 238.982 364.432 238.992 363.142 239.182 339.072 242.692 338.072 242.842 336.152 243.122 335.382 243.232 335.142 243.262 215.642 260.712"/>
    <polyline class="bf75e81d-69a1-4e84-9114-39734b412c68" points="0.142 266.052 106.392 238.212 107.792 237.852 108.512 237.662 109.532 237.392 111.762 236.812 113.122 236.452 114.142 236.182 137.292 230.122 138.982 229.672 140.452 229.292 141.372 229.052 143.082 228.602 149.292 226.972 151.692 226.342 153.122 225.972 156.612 225.062 157.242 224.892 158.012 224.692 177.922 219.472 178.842 219.232 180.332 218.842 183.332 218.052 184.642 217.712"/>
    <path class="bf75e81d-69a1-4e84-9114-39734b412c68" d="M200.5,254.5l-.35-.24-.72-.49-8.5-5.85-1.24-.85-1.53-1.05-.91-.63-.85-.58L157.43,224.9l-.33-.22-1.09-.76-15.69-10.78-.84-.57-.74-.51h-.01l-.43-.31-.84-.57-15.49-10.65-1.41-.97-.04-.02-.79-.54-.17-.12-.25-.17-1.07-.74-.38-.26-1.41-.97-.83-.57L96.44,182.99l-.82-.57L95,182l-.04-.03-.58-.39-.3-.21-.52-.36-.39-.27-.02-.01-.74-.51-.14-.1-.93-.64-.53-.36s0-.01-.01,0l-11.66-8.03-.84-.58-.88-.6-.01-.01-2.29-1.57-.84-.58-1.57-1.08-1.67-1.15-.01-.01-.91-.62-.36-.25-1.14-.79-.49-.33-.72-.49-.82-.57-1.16-.8-.07-.05-.82-.56L43.12,146.32l-.73-.51-.51-.35-1.36-.93-.27-.19-.26-.18-.49-.33-.49-.34-1.56-1.07-1.67-1.15h-.01l-6.41-4.42-2.85-1.96-2.08-1.43-21.81-15-1.25-.86-.38-.26L0,116.66" transform="translate(0.14154 0.21231)"/>
    <polyline class="bf75e81d-69a1-4e84-9114-39734b412c68" points="0.142 201.822 44.142 205.142 45.142 205.212 47.322 205.372 49.122 205.512 50.112 205.582 74.412 207.412 75.242 207.482 75.252 207.482 75.452 207.492 76.782 207.592 77.822 207.672 92.682 208.792 94.192 208.902 95.002 208.962 95.012 208.962 96.122 209.052 96.412 209.072 96.852 209.102 96.862 209.102 97.402 209.142 97.642 209.162 98.882 209.262 99.882 209.332 124.642 211.192 125.902 211.292 126.532 211.342 126.542 211.342 128.362 211.472 129.612 211.572 137.402 212.152 138.392 212.232 138.862 212.262 138.882 212.272 139.872 212.342 140.872 212.422 175.152 215.002 177.522 215.172 181.122 215.452 183.062 215.592 183.892 215.652 184.642 215.712"/>
    <polyline class="bf75e81d-69a1-4e84-9114-39734b412c68" points="0.142 94.672 1.152 95.312 2.432 96.142 5.062 97.822 6.252 98.582 6.332 98.632 8.012 99.702 9.272 100.512 41.462 121.122 44.832 123.272 45.222 123.522 45.242 123.532 47.712 125.122 50.172 126.692 51.892 127.792 52.262 128.032 55.612 130.172 76.602 143.612 77.872 144.422 79.242 145.292 80.392 146.032 81.662 146.842 94.102 154.812 95.132 155.462 95.222 155.522 95.532 155.722 95.822 155.912 96.252 156.182 96.662 156.452 96.852 156.562 97.342 156.882 98.012 157.312 98.542 157.652 99.992 158.572 101.602 159.612 102.452 160.152 103.292 160.692 104.402 161.402 104.972 161.762 105.822 162.302 106.662 162.842 114.442 167.822 116.222 168.962 116.952 169.432 118.012 170.102 118.882 170.662 120.922 171.972 122.072 172.712 122.942 173.262 131.682 178.852 134.082 180.392 134.992 180.972 143.662 186.522 144.502 187.062 146.522 188.362 146.532 188.362 147.872 189.222 148.712 189.762 173.572 205.662 173.642 205.712"/>
    <path class="bf75e81d-69a1-4e84-9114-39734b412c68" d="M0,111.97l11.21,6.14,3.13,1.72h.01l.36.2,1.4.77,3.77,2.06c.01.01.01,0,.01,0l36.03,19.75,1.33.73.03.02,1.68.92.06.03.26.15,1.01.55.47.26.9.49,1.68.92.66.36,2.1,1.15.38.21,2.1,1.15,6.31,3.46,1.76.96.79.43.58.32,1.62.89,1.58.87,1.62.88.46.25.7.39,1.05.58.84.46,2.72,1.49,12.78,7,.87.48.88.48,1.75.96.38.2.5.28.73.4.15.08,1.63.89,1.52.84.17.09,1.77.97,11.78,6.46.74.4.95.52,1.67.92.05.03,12.98,7.11,1.32.72.89.49.83.45,1.33.73L172.5,206.5l-28.08-15.87-1.44-.81-.33-.18-1-.57-1.44-.81-12.8-7.23-.42-.24-.46-.26-.01-.01-1.24-.7-.89-.5-.23-.13-11.3-6.39-.88-.49-1.22-.69-.75-.42v-.01l-2.09-1.18-.72-.4-.24-.14-.96-.54-2.97-1.68-.96-.54-11.89-6.72-.65-.37-2.19-1.23-.24-.14-1.76-.99-1.03-.58-.62-.36-1.31-.74-.38-.21-2.21-1.25-1.32-.74-8.81-4.98-1.32-.75-.35-.2-2.24-1.26-1.17-.66-.15-.08-1.16-.66-.39-.22-.92-.52-1.29-.73-.33-.19-.98-.55-.74-.42-1.09-.61L21.7,121.3l-.27-.15-1.04-.59-.9-.5-.8-.46-.88-.5-1.32-.74L0,109.04" transform="translate(0.14154 0.21231)"/>
    <path class="bf75e81d-69a1-4e84-9114-39734b412c68" d="M0,138l10.58,4.36,1.45.6,3.03,1.25.1.04,3.67,1.51,37.44,15.43.77.32.96.4.11.04,1.52.62.61.26.26.1.38.16.29.12.31.13.97.4.4.16,2.01.83.92.38,2.28.94,3.78,1.56,2.2.91.96.39,2.41.99.01.01,1.05.43.97.4,15.88,6.54,2.56,1.06.24.1.71.29,1.08.44,4.21,1.74.9.37.5.21,1.37.56,3.03,1.25,21.24,8.75.92.38,1.77.73,1.91.79.93.38L173.5,209.5l-36.62-15.69-.92-.4-1.32-.57h-.01l-2.28-.97-.93-.4-20.84-8.94-2.7-1.15-.99-.43-1.77-.76-.18-.07-4.62-1.98-.38-.16-.54-.24-.11-.05h-.01l-.97-.42-1.04-.44-1.07-.46-16.23-6.96L79,169l-3.37-1.45-.13-.05-.84-.37-1.8-.8-1.82-.81-.01-.01-1.5-.66-.12-.06-1.11-.49-.28-.13-1.31-.58-.82-.36-1.52-.68c-.01-.01-.01-.01-.02-.01l-1.18-.52-.03-.01-.14-.07-1.08-.47-.29-.14-2.52-1.12-1.07-.47L22.79,144.08l-1.87-.84-3.59-1.6L0,133.94l-.04-.01" transform="translate(0.14154 0.21231)"/>
    <path class="bf75e81d-69a1-4e84-9114-39734b412c68" d="M0,167.44l9.62,2.48,1.24.32,1.62.42L59.51,182.8l1.51.39v.01l1.11.28.63.16,1.51.39,12.35,3.19,1.96.51.61.16.31.08,1.95.5,10.22,2.64,2.05.53.02.01,2.73.7,18.65,4.82.97.24v.01l1.69.43.46.12,1.42.37.3.07.45.12h.01l.2.05v.01l.3.07,1.58.41,51.88,13.4.12.03" transform="translate(0.14154 0.21231)"/>
    <polyline class="bf75e81d-69a1-4e84-9114-39734b412c68" points="259.642 355.712 212.642 262.712 171.642 179.712"/>
  </g>
  <g id="b4c484bc-ea26-4b5a-934f-4e7e2c695c3d" data-name="Круг залитый">
    <circle class="a77a26af-caf0-4c05-83bc-cf10d37b5999" cx="38.14154" cy="107.21231" r="1"/>
    <circle class="a77a26af-caf0-4c05-83bc-cf10d37b5999" cx="87.14154" cy="134.21231" r="1"/>
    <circle class="a77a26af-caf0-4c05-83bc-cf10d37b5999" cx="76.14154" cy="154.21231" r="1.5"/>
    <circle class="a77a26af-caf0-4c05-83bc-cf10d37b5999" cx="115.64154" cy="168.71231" r="1.5"/>
    <circle class="a77a26af-caf0-4c05-83bc-cf10d37b5999" cx="105.64154" cy="181.71231" r="1.5"/>
    <circle class="a77a26af-caf0-4c05-83bc-cf10d37b5999" cx="59.64154" cy="162.71231" r="1.5"/>
    <circle class="a77a26af-caf0-4c05-83bc-cf10d37b5999" cx="59.64154" cy="144.71231" r="2.5"/>
    <circle class="a77a26af-caf0-4c05-83bc-cf10d37b5999" cx="84.64154" cy="158.71231" r="1.5"/>
    <circle class="a77a26af-caf0-4c05-83bc-cf10d37b5999" cx="96.64154" cy="156.71231" r="1.5"/>
    <circle class="a77a26af-caf0-4c05-83bc-cf10d37b5999" cx="45.64154" cy="111.71231" r="2"/>
    <circle class="a77a26af-caf0-4c05-83bc-cf10d37b5999" cx="43.14154" cy="122.21231" r="2"/>
    <circle class="a77a26af-caf0-4c05-83bc-cf10d37b5999" cx="13.14154" cy="119.21231" r="2"/>
    <circle class="a77a26af-caf0-4c05-83bc-cf10d37b5999" cx="19.14154" cy="120.21231" r="0.5"/>
    <circle class="a77a26af-caf0-4c05-83bc-cf10d37b5999" cx="210.14154" cy="162.21231" r="1"/>
    <circle class="a77a26af-caf0-4c05-83bc-cf10d37b5999" cx="90.14154" cy="157.21231" r="1"/>
    <circle class="a77a26af-caf0-4c05-83bc-cf10d37b5999" cx="121.14154" cy="166.21231" r="1.5"/>
    <circle class="a77a26af-caf0-4c05-83bc-cf10d37b5999" cx="167.64154" cy="176.71231" r="1.5"/>
    <circle class="a77a26af-caf0-4c05-83bc-cf10d37b5999" cx="69.14154" cy="164.21231" r="1"/>
    <circle class="a77a26af-caf0-4c05-83bc-cf10d37b5999" cx="109.14154" cy="172.21231" r="1"/>
    <circle class="a77a26af-caf0-4c05-83bc-cf10d37b5999" cx="112.14154" cy="146.21231" r="1"/>
    <circle class="a77a26af-caf0-4c05-83bc-cf10d37b5999" cx="114.14154" cy="154.21231" r="1"/>
    <circle class="a77a26af-caf0-4c05-83bc-cf10d37b5999" cx="293.14154" cy="81.71231" r="0.5"/>
    <circle class="a77a26af-caf0-4c05-83bc-cf10d37b5999" cx="231.64154" cy="169.21231" r="0.25"/>
    <circle class="a77a26af-caf0-4c05-83bc-cf10d37b5999" cx="227.64154" cy="167.21231" r="0.25"/>
    <path class="a77a26af-caf0-4c05-83bc-cf10d37b5999" d="M1.5,94a1.44294,1.44294,0,0,1-.22.77,1.08713,1.08713,0,0,1-.27.33A1.45544,1.45544,0,0,1,0,95.5v-3A1.498,1.498,0,0,1,1.5,94Z" transform="translate(0.14154 0.21231)"/>
    <circle class="a77a26af-caf0-4c05-83bc-cf10d37b5999" cx="234.64154" cy="157.21231" r="0.25"/>
    <circle class="a77a26af-caf0-4c05-83bc-cf10d37b5999" cx="261.14154" cy="141.21231" r="0.75"/>
    <circle class="a77a26af-caf0-4c05-83bc-cf10d37b5999" cx="280.14154" cy="165.21231" r="0.75"/>
    <circle class="a77a26af-caf0-4c05-83bc-cf10d37b5999" cx="270.14154" cy="179.71231" r="1.5"/>
    <circle class="a77a26af-caf0-4c05-83bc-cf10d37b5999" cx="120.14154" cy="172.21231" r="0.5"/>
    <circle class="a77a26af-caf0-4c05-83bc-cf10d37b5999" cx="222.14154" cy="174.21231" r="0.625"/>
    <circle class="a77a26af-caf0-4c05-83bc-cf10d37b5999" cx="209.14154" cy="190.21231" r="0.625"/>
    <circle class="a77a26af-caf0-4c05-83bc-cf10d37b5999" cx="226.14154" cy="195.21231" r="0.625"/>
    <circle class="a77a26af-caf0-4c05-83bc-cf10d37b5999" cx="240.64154" cy="220.71231" r="1.5"/>
    <circle class="a77a26af-caf0-4c05-83bc-cf10d37b5999" cx="292.14154" cy="202.21231" r="0.5"/>
    <circle class="a77a26af-caf0-4c05-83bc-cf10d37b5999" cx="337.14154" cy="198.21231" r="1"/>
    <circle class="a77a26af-caf0-4c05-83bc-cf10d37b5999" cx="403.14154" cy="233.21231" r="0.75"/>
    <circle class="a77a26af-caf0-4c05-83bc-cf10d37b5999" cx="365.14154" cy="239.21231" r="0.75"/>
    <circle class="a77a26af-caf0-4c05-83bc-cf10d37b5999" cx="441.14154" cy="227.21231" r="1"/>
    <circle class="a77a26af-caf0-4c05-83bc-cf10d37b5999" cx="391.14154" cy="247.21231" r="1"/>
    <circle class="a77a26af-caf0-4c05-83bc-cf10d37b5999" cx="431.14154" cy="270.21231" r="0.75"/>
    <circle class="a77a26af-caf0-4c05-83bc-cf10d37b5999" cx="434.14154" cy="265.21231" r="0.75"/>
    <circle class="a77a26af-caf0-4c05-83bc-cf10d37b5999" cx="201.14154" cy="185.21231" r="0.625"/>
    <circle class="a77a26af-caf0-4c05-83bc-cf10d37b5999" cx="227.14154" cy="190.21231" r="0.625"/>
    <circle class="a77a26af-caf0-4c05-83bc-cf10d37b5999" cx="213.14154" cy="170.21231" r="1"/>
    <circle class="a77a26af-caf0-4c05-83bc-cf10d37b5999" cx="206.14154" cy="172.21231" r="0.75"/>
    <circle class="a77a26af-caf0-4c05-83bc-cf10d37b5999" cx="79.14154" cy="188.21231" r="0.5"/>
    <circle class="a77a26af-caf0-4c05-83bc-cf10d37b5999" cx="139.14154" cy="212.21231" r="0.75"/>
    <circle class="a77a26af-caf0-4c05-83bc-cf10d37b5999" cx="214.14154" cy="265.21231" r="2"/>
    <circle class="a77a26af-caf0-4c05-83bc-cf10d37b5999" cx="203.14154" cy="257.21231" r="0.75"/>
    <circle class="a77a26af-caf0-4c05-83bc-cf10d37b5999" cx="202.14154" cy="256.21231" r="0.75"/>
    <circle class="a77a26af-caf0-4c05-83bc-cf10d37b5999" cx="212.14154" cy="257.21231" r="0.75"/>
    <circle class="a77a26af-caf0-4c05-83bc-cf10d37b5999" cx="107.14154" cy="238.21231" r="0.75"/>
    <circle class="a77a26af-caf0-4c05-83bc-cf10d37b5999" cx="112.14154" cy="202.21231" r="0.75"/>
    <circle class="a77a26af-caf0-4c05-83bc-cf10d37b5999" cx="157.14154" cy="224.21231" r="1"/>
    <circle class="a77a26af-caf0-4c05-83bc-cf10d37b5999" cx="211.14154" cy="317.21231" r="1.5"/>
    <circle class="a77a26af-caf0-4c05-83bc-cf10d37b5999" cx="235.64154" cy="338.71231" r="2.5"/>
    <circle class="a77a26af-caf0-4c05-83bc-cf10d37b5999" cx="261.64154" cy="355.71231" r="3"/>
    <circle class="a77a26af-caf0-4c05-83bc-cf10d37b5999" cx="246.64154" cy="329.71231" r="1.5"/>
    <circle class="a77a26af-caf0-4c05-83bc-cf10d37b5999" cx="142.14154" cy="190.21231" r="1"/>
    <circle class="a77a26af-caf0-4c05-83bc-cf10d37b5999" cx="192.14154" cy="157.21231" r="0.75"/>
    <circle class="a77a26af-caf0-4c05-83bc-cf10d37b5999" cx="176.14154" cy="207.21231" r="1.25"/>
    <circle class="a77a26af-caf0-4c05-83bc-cf10d37b5999" cx="306.14154" cy="444.21231" r="1"/>
    <circle class="a77a26af-caf0-4c05-83bc-cf10d37b5999" cx="242.14154" cy="322.21231" r="1"/>
    <circle class="a77a26af-caf0-4c05-83bc-cf10d37b5999" cx="90.14154" cy="182.21231" r="1"/>
    <circle class="a77a26af-caf0-4c05-83bc-cf10d37b5999" cx="239.64154" cy="85.71231" r="1"/>
    <circle class="a77a26af-caf0-4c05-83bc-cf10d37b5999" cx="300.64154" cy="100.71231" r="0.5"/>
    <circle class="a77a26af-caf0-4c05-83bc-cf10d37b5999" cx="223.14154" cy="128.21231" r="1"/>
    <circle class="a77a26af-caf0-4c05-83bc-cf10d37b5999" cx="234.14154" cy="99.21231" r="0.75"/>
    <circle class="a77a26af-caf0-4c05-83bc-cf10d37b5999" cx="155.64154" cy="147.71231" r="3"/>
    <circle class="a77a26af-caf0-4c05-83bc-cf10d37b5999" cx="170.64154" cy="178.71231" r="3.5"/>
    <circle class="a77a26af-caf0-4c05-83bc-cf10d37b5999" cx="190.14154" cy="216.21231" r="3.5"/>
    <circle class="a77a26af-caf0-4c05-83bc-cf10d37b5999" cx="212.14154" cy="261.21231" r="3.5"/>
    <circle class="a77a26af-caf0-4c05-83bc-cf10d37b5999" cx="185.14154" cy="214.21231" r="2.5"/>
    <circle class="a77a26af-caf0-4c05-83bc-cf10d37b5999" cx="265.14154" cy="191.21231" r="0.75"/>
  </g>
  <g id="ebabef7d-9c1e-4c59-a335-fff67b857177" data-name="Круг обычный">
    <path class="a77a26af-caf0-4c05-83bc-cf10d37b5999" d="M184,152.75a2.25,2.25,0,1,1-2.25,2.25,2.25255,2.25255,0,0,1,2.25-2.25m0-.75a3,3,0,1,0,3,3,3,3,0,0,0-3-3Z" transform="translate(0.14154 0.21231)"/>
    <path class="a77a26af-caf0-4c05-83bc-cf10d37b5999" d="M184,154a1,1,0,1,1-1,1,1.00112,1.00112,0,0,1,1-1m0-.5a1.5,1.5,0,1,0,1.5,1.5,1.5,1.5,0,0,0-1.5-1.5Z" transform="translate(0.14154 0.21231)"/>
    <path class="a77a26af-caf0-4c05-83bc-cf10d37b5999" d="M189,158.75a2.25,2.25,0,1,1-2.25,2.25,2.25255,2.25255,0,0,1,2.25-2.25m0-.75a3,3,0,1,0,3,3,3,3,0,0,0-3-3Z" transform="translate(0.14154 0.21231)"/>
    <path class="a77a26af-caf0-4c05-83bc-cf10d37b5999" d="M189,160a1,1,0,1,1-1,1,1.00112,1.00112,0,0,1,1-1m0-.5a1.5,1.5,0,1,0,1.5,1.5,1.5,1.5,0,0,0-1.5-1.5Z" transform="translate(0.14154 0.21231)"/>
    <path class="a77a26af-caf0-4c05-83bc-cf10d37b5999" d="M191.5,160.5a1,1,0,1,1-1,1,1.00112,1.00112,0,0,1,1-1m0-.5a1.5,1.5,0,1,0,1.5,1.5,1.5,1.5,0,0,0-1.5-1.5Z" transform="translate(0.14154 0.21231)"/>
    <g>
      <path class="a77a26af-caf0-4c05-83bc-cf10d37b5999" d="M166,177.75a2.25,2.25,0,1,1-2.25,2.25,2.25255,2.25255,0,0,1,2.25-2.25m0-.75a3,3,0,1,0,3,3,3,3,0,0,0-3-3Z" transform="translate(0.14154 0.21231)"/>
      <path class="a77a26af-caf0-4c05-83bc-cf10d37b5999" d="M166,179a1,1,0,1,1-1,1,1.00112,1.00112,0,0,1,1-1m0-.5a1.5,1.5,0,1,0,1.5,1.5,1.5,1.5,0,0,0-1.5-1.5Z" transform="translate(0.14154 0.21231)"/>
    </g>
    <g>
      <path class="a77a26af-caf0-4c05-83bc-cf10d37b5999" d="M228,173.75a2.25,2.25,0,1,1-2.25,2.25,2.25255,2.25255,0,0,1,2.25-2.25m0-.75a3,3,0,1,0,3,3,3,3,0,0,0-3-3Z" transform="translate(0.14154 0.21231)"/>
      <path class="a77a26af-caf0-4c05-83bc-cf10d37b5999" d="M228,175a1,1,0,1,1-1,1,1.00113,1.00113,0,0,1,1-1m0-.5a1.5,1.5,0,1,0,1.5,1.5,1.5,1.5,0,0,0-1.5-1.5Z" transform="translate(0.14154 0.21231)"/>
    </g>
    <path class="a77a26af-caf0-4c05-83bc-cf10d37b5999" d="M267.5,11a1.5,1.5,0,1,1-1.5,1.5,1.50171,1.50171,0,0,1,1.5-1.5m0-1.5a3,3,0,1,0,3,3,3,3,0,0,0-3-3Z" transform="translate(0.14154 0.21231)"/>
    <path class="a77a26af-caf0-4c05-83bc-cf10d37b5999" d="M38,104.75A2.25,2.25,0,1,1,35.75,107,2.25255,2.25255,0,0,1,38,104.75m0-.75a3,3,0,1,0,3,3,3,3,0,0,0-3-3Z" transform="translate(0.14154 0.21231)"/>
    <path class="a77a26af-caf0-4c05-83bc-cf10d37b5999" d="M57,114.5a.5.5,0,1,1-.5.5.50057.50057,0,0,1,.5-.5m0-.5a1,1,0,1,0,1,1,1,1,0,0,0-1-1Z" transform="translate(0.14154 0.21231)"/>
    <path class="a77a26af-caf0-4c05-83bc-cf10d37b5999" d="M41,143.25A1.75,1.75,0,1,1,39.25,145,1.752,1.752,0,0,1,41,143.25m0-.75a2.5,2.5,0,1,0,2.5,2.5,2.5,2.5,0,0,0-2.5-2.5Z" transform="translate(0.14154 0.21231)"/>
    <path class="a77a26af-caf0-4c05-83bc-cf10d37b5999" d="M41,144.5a.5.5,0,1,1-.5.5.50057.50057,0,0,1,.5-.5m0-.5a1,1,0,1,0,1,1,1,1,0,0,0-1-1Z" transform="translate(0.14154 0.21231)"/>
    <path class="a77a26af-caf0-4c05-83bc-cf10d37b5999" d="M7,97.25A1.75,1.75,0,1,1,5.25,99,1.752,1.752,0,0,1,7,97.25m0-.75A2.5,2.5,0,1,0,9.5,99,2.5,2.5,0,0,0,7,96.5Z" transform="translate(0.14154 0.21231)"/>
    <path class="a77a26af-caf0-4c05-83bc-cf10d37b5999" d="M7,98.5a.5.5,0,1,1-.5.5.50057.50057,0,0,1,.5-.5M7,98a1,1,0,1,0,1,1,1,1,0,0,0-1-1Z" transform="translate(0.14154 0.21231)"/>
    <path class="a77a26af-caf0-4c05-83bc-cf10d37b5999" d="M87,131.75A2.25,2.25,0,1,1,84.75,134,2.25255,2.25255,0,0,1,87,131.75m0-.75a3,3,0,1,0,3,3,3,3,0,0,0-3-3Z" transform="translate(0.14154 0.21231)"/>
    <g>
      <path class="a77a26af-caf0-4c05-83bc-cf10d37b5999" d="M19,117.75A2.25,2.25,0,1,1,16.75,120,2.25255,2.25255,0,0,1,19,117.75m0-.75a3,3,0,1,0,3,3,3,3,0,0,0-3-3Z" transform="translate(0.14154 0.21231)"/>
      <path class="a77a26af-caf0-4c05-83bc-cf10d37b5999" d="M19,119a1,1,0,1,1-1,1,1.00113,1.00113,0,0,1,1-1m0-.5a1.5,1.5,0,1,0,1.5,1.5,1.5,1.5,0,0,0-1.5-1.5Z" transform="translate(0.14154 0.21231)"/>
    </g>
    <path class="a77a26af-caf0-4c05-83bc-cf10d37b5999" d="M27,132.75A2.25,2.25,0,1,1,24.75,135,2.25255,2.25255,0,0,1,27,132.75m0-.75a3,3,0,1,0,3,3,3,3,0,0,0-3-3Z" transform="translate(0.14154 0.21231)"/>
    <path class="a77a26af-caf0-4c05-83bc-cf10d37b5999" d="M11,169.5a1,1,0,1,1-1,1,1.00113,1.00113,0,0,1,1-1m0-.5a1.5,1.5,0,1,0,1.5,1.5A1.5,1.5,0,0,0,11,169Z" transform="translate(0.14154 0.21231)"/>
    <path class="a77a26af-caf0-4c05-83bc-cf10d37b5999" d="M40,141.75A2.25,2.25,0,1,1,37.75,144,2.25255,2.25255,0,0,1,40,141.75m0-.75a3,3,0,1,0,3,3,3,3,0,0,0-3-3Z" transform="translate(0.14154 0.21231)"/>
    <path class="a77a26af-caf0-4c05-83bc-cf10d37b5999" d="M20,140.75A2.25,2.25,0,1,1,17.75,143,2.25255,2.25255,0,0,1,20,140.75m0-.75a3,3,0,1,0,3,3,3,3,0,0,0-3-3Z" transform="translate(0.14154 0.21231)"/>
    <path class="a77a26af-caf0-4c05-83bc-cf10d37b5999" d="M13,142.5a.5.5,0,1,1-.5.5.50057.50057,0,0,1,.5-.5m0-2a2.5,2.5,0,1,0,2.5,2.5,2.5,2.5,0,0,0-2.5-2.5Z" transform="translate(0.14154 0.21231)"/>
    <path class="a77a26af-caf0-4c05-83bc-cf10d37b5999" d="M57,113.25A1.75,1.75,0,1,1,55.25,115,1.752,1.752,0,0,1,57,113.25m0-.75a2.5,2.5,0,1,0,2.5,2.5,2.5,2.5,0,0,0-2.5-2.5Z" transform="translate(0.14154 0.21231)"/>
    <path class="a77a26af-caf0-4c05-83bc-cf10d37b5999" d="M51.5,110.25a1.25,1.25,0,1,1-1.25,1.25,1.25142,1.25142,0,0,1,1.25-1.25m0-1.25a2.5,2.5,0,1,0,2.5,2.5,2.5,2.5,0,0,0-2.5-2.5Z" transform="translate(0.14154 0.21231)"/>
    <path class="a77a26af-caf0-4c05-83bc-cf10d37b5999" d="M49.5,125.25a1.25,1.25,0,1,1-1.25,1.25,1.25142,1.25142,0,0,1,1.25-1.25m0-1.25a2.5,2.5,0,1,0,2.5,2.5,2.5,2.5,0,0,0-2.5-2.5Z" transform="translate(0.14154 0.21231)"/>
    <path class="a77a26af-caf0-4c05-83bc-cf10d37b5999" d="M49,162.25A1.75,1.75,0,1,1,47.25,164,1.752,1.752,0,0,1,49,162.25m0-.75a2.5,2.5,0,1,0,2.5,2.5,2.5,2.5,0,0,0-2.5-2.5Z" transform="translate(0.14154 0.21231)"/>
    <path class="a77a26af-caf0-4c05-83bc-cf10d37b5999" d="M70.5,164.5a1,1,0,1,1-1,1,1.00113,1.00113,0,0,1,1-1m0-1.5a2.5,2.5,0,1,0,2.5,2.5,2.5,2.5,0,0,0-2.5-2.5Z" transform="translate(0.14154 0.21231)"/>
    <path class="a77a26af-caf0-4c05-83bc-cf10d37b5999" d="M50.5,185.75a1.75,1.75,0,1,1-1.75,1.75,1.752,1.752,0,0,1,1.75-1.75m0-.75a2.5,2.5,0,1,0,2.5,2.5,2.5,2.5,0,0,0-2.5-2.5Z" transform="translate(0.14154 0.21231)"/>
    <path class="a77a26af-caf0-4c05-83bc-cf10d37b5999" d="M67,146a1,1,0,1,1-1,1,1.00113,1.00113,0,0,1,1-1m0-.5a1.5,1.5,0,1,0,1.5,1.5,1.5,1.5,0,0,0-1.5-1.5Z" transform="translate(0.14154 0.21231)"/>
    <g>
      <path class="a77a26af-caf0-4c05-83bc-cf10d37b5999" d="M37,141.75A2.25,2.25,0,1,1,34.75,144,2.25255,2.25255,0,0,1,37,141.75m0-.75a3,3,0,1,0,3,3,3,3,0,0,0-3-3Z" transform="translate(0.14154 0.21231)"/>
      <path class="a77a26af-caf0-4c05-83bc-cf10d37b5999" d="M37,143a1,1,0,1,1-1,1,1.00113,1.00113,0,0,1,1-1m0-.5a1.5,1.5,0,1,0,1.5,1.5,1.5,1.5,0,0,0-1.5-1.5Z" transform="translate(0.14154 0.21231)"/>
    </g>
    <g>
      <path class="a77a26af-caf0-4c05-83bc-cf10d37b5999" d="M55,124.75A2.25,2.25,0,1,1,52.75,127,2.25255,2.25255,0,0,1,55,124.75m0-.75a3,3,0,1,0,3,3,3,3,0,0,0-3-3Z" transform="translate(0.14154 0.21231)"/>
      <path class="a77a26af-caf0-4c05-83bc-cf10d37b5999" d="M55,126a1,1,0,1,1-1,1,1.00113,1.00113,0,0,1,1-1m0-.5a1.5,1.5,0,1,0,1.5,1.5,1.5,1.5,0,0,0-1.5-1.5Z" transform="translate(0.14154 0.21231)"/>
    </g>
    <g>
      <path class="a77a26af-caf0-4c05-83bc-cf10d37b5999" d="M.75,114.87852A2.2539,2.2539,0,0,1,2.25,117a2.49036,2.49036,0,0,1-.056.51176,2.44835,2.44835,0,0,1-.22995.58458A2.23962,2.23962,0,0,1,.75,119.12159v-4.24307M0,114v6a2.98722,2.98722,0,0,0,2.62-1.54,3.1692,3.1692,0,0,0,.3-.75995A3.267,3.267,0,0,0,3,117a2.996,2.996,0,0,0-3-3Z" transform="translate(0.14154 0.21231)"/>
      <path class="a77a26af-caf0-4c05-83bc-cf10d37b5999" d="M.5,116.1342A1.0006,1.0006,0,0,1,1,117a.67022.67022,0,0,1-.03669.24052l-.04366.1105-.00833.04993A.9902.9902,0,0,1,.5,117.86758V116.1342M0,115.5v3a1.4859,1.4859,0,0,0,1.37-.9.63528.63528,0,0,0,.06-.18A1.15841,1.15841,0,0,0,1.5,117,1.498,1.498,0,0,0,0,115.5Z" transform="translate(0.14154 0.21231)"/>
    </g>
    <path class="a77a26af-caf0-4c05-83bc-cf10d37b5999" d="M.75,91.87852A2.2539,2.2539,0,0,1,2.25,94a2.21629,2.21629,0,0,1-.21185.94756,2.24749,2.24749,0,0,1-.33383.51392,2.04051,2.04051,0,0,1-.79745.597q-.07641.0351-.15687.064V91.87852M0,91v6a2.93442,2.93442,0,0,0,1.22-.26,2.76906,2.76906,0,0,0,1.07-.81,2.94193,2.94193,0,0,0,.43-.67A2.94335,2.94335,0,0,0,3,94a2.996,2.996,0,0,0-3-3Z" transform="translate(0.14154 0.21231)"/>
    <path class="a77a26af-caf0-4c05-83bc-cf10d37b5999" d="M104,166.5a2.5,2.5,0,1,1-2.5,2.5,2.50285,2.50285,0,0,1,2.5-2.5m0-.5a3,3,0,1,0,3,3,3,3,0,0,0-3-3Z" transform="translate(0.14154 0.21231)"/>
    <path class="a77a26af-caf0-4c05-83bc-cf10d37b5999" d="M104,167.5a1.5,1.5,0,1,1-1.5,1.5,1.5017,1.5017,0,0,1,1.5-1.5m0-.5a2,2,0,1,0,2,2,2,2,0,0,0-2-2Z" transform="translate(0.14154 0.21231)"/>
    <path class="a77a26af-caf0-4c05-83bc-cf10d37b5999" d="M104,168.25a.75.75,0,1,1-.75.75.75086.75086,0,0,1,.75-.75m0-.25a1,1,0,1,0,1,1,1,1,0,0,0-1-1Z" transform="translate(0.14154 0.21231)"/>
    <g>
      <path class="a77a26af-caf0-4c05-83bc-cf10d37b5999" d="M92,132.75A2.25,2.25,0,1,1,89.75,135,2.25255,2.25255,0,0,1,92,132.75m0-.75a3,3,0,1,0,3,3,3,3,0,0,0-3-3Z" transform="translate(0.14154 0.21231)"/>
      <path class="a77a26af-caf0-4c05-83bc-cf10d37b5999" d="M92,134a1,1,0,1,1-1,1,1.00112,1.00112,0,0,1,1-1m0-.5a1.5,1.5,0,1,0,1.5,1.5,1.5,1.5,0,0,0-1.5-1.5Z" transform="translate(0.14154 0.21231)"/>
    </g>
    <g>
      <path class="a77a26af-caf0-4c05-83bc-cf10d37b5999" d="M81,152.75A2.25,2.25,0,1,1,78.75,155,2.25255,2.25255,0,0,1,81,152.75m0-.75a3,3,0,1,0,3,3,3,3,0,0,0-3-3Z" transform="translate(0.14154 0.21231)"/>
      <path class="a77a26af-caf0-4c05-83bc-cf10d37b5999" d="M81,154a1,1,0,1,1-1,1,1.00112,1.00112,0,0,1,1-1m0-.5a1.5,1.5,0,1,0,1.5,1.5,1.5,1.5,0,0,0-1.5-1.5Z" transform="translate(0.14154 0.21231)"/>
    </g>
    <g>
      <path class="a77a26af-caf0-4c05-83bc-cf10d37b5999" d="M79,142.75A2.25,2.25,0,1,1,76.75,145,2.25255,2.25255,0,0,1,79,142.75m0-.75a3,3,0,1,0,3,3,3,3,0,0,0-3-3Z" transform="translate(0.14154 0.21231)"/>
      <path class="a77a26af-caf0-4c05-83bc-cf10d37b5999" d="M79,144a1,1,0,1,1-1,1,1.00112,1.00112,0,0,1,1-1m0-.5a1.5,1.5,0,1,0,1.5,1.5,1.5,1.5,0,0,0-1.5-1.5Z" transform="translate(0.14154 0.21231)"/>
    </g>
    <g>
      <path class="a77a26af-caf0-4c05-83bc-cf10d37b5999" d="M98,153.75A2.25,2.25,0,1,1,95.75,156,2.25255,2.25255,0,0,1,98,153.75m0-.75a3,3,0,1,0,3,3,3,3,0,0,0-3-3Z" transform="translate(0.14154 0.21231)"/>
      <path class="a77a26af-caf0-4c05-83bc-cf10d37b5999" d="M98,155a1,1,0,1,1-1,1,1.00112,1.00112,0,0,1,1-1m0-.5a1.5,1.5,0,1,0,1.5,1.5,1.5,1.5,0,0,0-1.5-1.5Z" transform="translate(0.14154 0.21231)"/>
    </g>
    <g>
      <path class="a77a26af-caf0-4c05-83bc-cf10d37b5999" d="M62,141.75A2.25,2.25,0,1,1,59.75,144,2.25255,2.25255,0,0,1,62,141.75m0-.75a3,3,0,1,0,3,3,3,3,0,0,0-3-3Z" transform="translate(0.14154 0.21231)"/>
      <path class="a77a26af-caf0-4c05-83bc-cf10d37b5999" d="M62,143a1,1,0,1,1-1,1,1.00113,1.00113,0,0,1,1-1m0-.5a1.5,1.5,0,1,0,1.5,1.5,1.5,1.5,0,0,0-1.5-1.5Z" transform="translate(0.14154 0.21231)"/>
    </g>
    <path class="a77a26af-caf0-4c05-83bc-cf10d37b5999" d="M67,144.75A2.25,2.25,0,1,1,64.75,147,2.25255,2.25255,0,0,1,67,144.75m0-.75a3,3,0,1,0,3,3,3,3,0,0,0-3-3Z" transform="translate(0.14154 0.21231)"/>
    <path class="a77a26af-caf0-4c05-83bc-cf10d37b5999" d="M104,160.25a.75.75,0,1,1-.75.75.75086.75086,0,0,1,.75-.75m0-.25a1,1,0,1,0,1,1,1,1,0,0,0-1-1Z" transform="translate(0.14154 0.21231)"/>
    <path class="a77a26af-caf0-4c05-83bc-cf10d37b5999" d="M210,159.5a2.5,2.5,0,1,1-2.5,2.5,2.50284,2.50284,0,0,1,2.5-2.5m0-.5a3,3,0,1,0,3,3,3,3,0,0,0-3-3Z" transform="translate(0.14154 0.21231)"/>
    <path class="a77a26af-caf0-4c05-83bc-cf10d37b5999" d="M210,160.5a1.5,1.5,0,1,1-1.5,1.5,1.50171,1.50171,0,0,1,1.5-1.5m0-.5a2,2,0,1,0,2,2,2,2,0,0,0-2-2Z" transform="translate(0.14154 0.21231)"/>
    <path class="a77a26af-caf0-4c05-83bc-cf10d37b5999" d="M90,154.75A2.25,2.25,0,1,1,87.75,157,2.25255,2.25255,0,0,1,90,154.75m0-.75a3,3,0,1,0,3,3,3,3,0,0,0-3-3Z" transform="translate(0.14154 0.21231)"/>
    <path class="a77a26af-caf0-4c05-83bc-cf10d37b5999" d="M109,169.75a2.25,2.25,0,1,1-2.25,2.25,2.25255,2.25255,0,0,1,2.25-2.25m0-.75a3,3,0,1,0,3,3,3,3,0,0,0-3-3Z" transform="translate(0.14154 0.21231)"/>
    <path class="a77a26af-caf0-4c05-83bc-cf10d37b5999" d="M114,151.75a2.25,2.25,0,1,1-2.25,2.25,2.25255,2.25255,0,0,1,2.25-2.25m0-.75a3,3,0,1,0,3,3,3,3,0,0,0-3-3Z" transform="translate(0.14154 0.21231)"/>
    <path class="a77a26af-caf0-4c05-83bc-cf10d37b5999" d="M87,155.75A2.25,2.25,0,1,1,84.75,158,2.25255,2.25255,0,0,1,87,155.75m0-.75a3,3,0,1,0,3,3,3,3,0,0,0-3-3Z" transform="translate(0.14154 0.21231)"/>
    <path class="a77a26af-caf0-4c05-83bc-cf10d37b5999" d="M95.5,144a1.5,1.5,0,1,1-1.5,1.5,1.5017,1.5017,0,0,1,1.5-1.5m0-1a2.5,2.5,0,1,0,2.5,2.5,2.5,2.5,0,0,0-2.5-2.5Z" transform="translate(0.14154 0.21231)"/>
    <path class="a77a26af-caf0-4c05-83bc-cf10d37b5999" d="M109.5,144a1.5,1.5,0,1,1-1.5,1.5,1.5017,1.5017,0,0,1,1.5-1.5m0-1a2.5,2.5,0,1,0,2.5,2.5,2.5,2.5,0,0,0-2.5-2.5Z" transform="translate(0.14154 0.21231)"/>
    <path class="a77a26af-caf0-4c05-83bc-cf10d37b5999" d="M122.5,151.5a1,1,0,1,1-1,1,1.00112,1.00112,0,0,1,1-1m0-1a2,2,0,1,0,2,2,2,2,0,0,0-2-2Z" transform="translate(0.14154 0.21231)"/>
    <path class="a77a26af-caf0-4c05-83bc-cf10d37b5999" d="M112,170a1,1,0,1,1-1,1,1.00112,1.00112,0,0,1,1-1m0-1a2,2,0,1,0,2,2,2,2,0,0,0-2-2Z" transform="translate(0.14154 0.21231)"/>
    <path class="a77a26af-caf0-4c05-83bc-cf10d37b5999" d="M134,158a1,1,0,1,1-1,1,1.00112,1.00112,0,0,1,1-1m0-1a2,2,0,1,0,2,2,2,2,0,0,0-2-2Z" transform="translate(0.14154 0.21231)"/>
    <path class="a77a26af-caf0-4c05-83bc-cf10d37b5999" d="M125,180a1,1,0,1,1-1,1,1.00112,1.00112,0,0,1,1-1m0-1a2,2,0,1,0,2,2,2,2,0,0,0-2-2Z" transform="translate(0.14154 0.21231)"/>
    <path class="a77a26af-caf0-4c05-83bc-cf10d37b5999" d="M133,178.75a1.25,1.25,0,1,1-1.25,1.25,1.25142,1.25142,0,0,1,1.25-1.25m0-.75a2,2,0,1,0,2,2,2,2,0,0,0-2-2Z" transform="translate(0.14154 0.21231)"/>
    <path class="a77a26af-caf0-4c05-83bc-cf10d37b5999" d="M321,43a2,2,0,1,1-2,2,2.00226,2.00226,0,0,1,2-2m0-.5a2.5,2.5,0,1,0,2.5,2.5,2.5,2.5,0,0,0-2.5-2.5Z" transform="translate(0.14154 0.21231)"/>
    <path class="a77a26af-caf0-4c05-83bc-cf10d37b5999" d="M484.5,47.5a2,2,0,1,1-2,2,2.00228,2.00228,0,0,1,2-2m0-1a3,3,0,1,0,3,3,3,3,0,0,0-3-3Z" transform="translate(0.14154 0.21231)"/>
    <path class="a77a26af-caf0-4c05-83bc-cf10d37b5999" d="M500,111.77a2.95358,2.95358,0,0,0-1,2.22V114c0,.11.01.21.02.32a2.89462,2.89462,0,0,0,.41,1.23,2.68062,2.68062,0,0,0,.57.68v-4.46Z" transform="translate(0.14154 0.21231)"/>
    <path class="a77a26af-caf0-4c05-83bc-cf10d37b5999" d="M287,65.5a.5.5,0,1,1-.5.5.50057.50057,0,0,1,.5-.5m0-.5a1,1,0,1,0,1,1,1,1,0,0,0-1-1Z" transform="translate(0.14154 0.21231)"/>
    <path class="a77a26af-caf0-4c05-83bc-cf10d37b5999" d="M300,153a1,1,0,1,1-1,1,1.00113,1.00113,0,0,1,1-1m0-.75a1.75,1.75,0,1,0,1.75,1.75,1.75,1.75,0,0,0-1.75-1.75Z" transform="translate(0.14154 0.21231)"/>
    <path class="a77a26af-caf0-4c05-83bc-cf10d37b5999" d="M214,102.5a1.5,1.5,0,1,1-1.5,1.5,1.50171,1.50171,0,0,1,1.5-1.5m0-1.5a3,3,0,1,0,3,3,3,3,0,0,0-3-3Z" transform="translate(0.14154 0.21231)"/>
    <g>
      <path class="a77a26af-caf0-4c05-83bc-cf10d37b5999" d="M207,112.75a2.25,2.25,0,1,1-2.25,2.25,2.25255,2.25255,0,0,1,2.25-2.25m0-.75a3,3,0,1,0,3,3,3,3,0,0,0-3-3Z" transform="translate(0.14154 0.21231)"/>
      <path class="a77a26af-caf0-4c05-83bc-cf10d37b5999" d="M207,114a1,1,0,1,1-1,1,1.00114,1.00114,0,0,1,1-1m0-.5a1.5,1.5,0,1,0,1.5,1.5,1.5,1.5,0,0,0-1.5-1.5Z" transform="translate(0.14154 0.21231)"/>
    </g>
    <path class="a77a26af-caf0-4c05-83bc-cf10d37b5999" d="M293,80.5a1,1,0,1,1-1,1,1.00114,1.00114,0,0,1,1-1m0-.5a1.5,1.5,0,1,0,1.5,1.5A1.5,1.5,0,0,0,293,80Z" transform="translate(0.14154 0.21231)"/>
    <path class="a77a26af-caf0-4c05-83bc-cf10d37b5999" d="M325.5,54.5a1,1,0,1,1-1,1,1.00114,1.00114,0,0,1,1-1m0-.5a1.5,1.5,0,1,0,1.5,1.5,1.5,1.5,0,0,0-1.5-1.5Z" transform="translate(0.14154 0.21231)"/>
    <path class="a77a26af-caf0-4c05-83bc-cf10d37b5999" d="M336.5,34.5a1,1,0,1,1-1,1,1.00114,1.00114,0,0,1,1-1m0-.5a1.5,1.5,0,1,0,1.5,1.5,1.5,1.5,0,0,0-1.5-1.5Z" transform="translate(0.14154 0.21231)"/>
    <path class="a77a26af-caf0-4c05-83bc-cf10d37b5999" d="M218,138.5a2,2,0,1,1-2,2,2.00226,2.00226,0,0,1,2-2m0-.5a2.5,2.5,0,1,0,2.5,2.5A2.5,2.5,0,0,0,218,138Z" transform="translate(0.14154 0.21231)"/>
    <path class="a77a26af-caf0-4c05-83bc-cf10d37b5999" d="M246,104.5a.5.5,0,1,1-.5.5.50057.50057,0,0,1,.5-.5m0-.5a1,1,0,1,0,1,1,1,1,0,0,0-1-1Z" transform="translate(0.14154 0.21231)"/>
    <path class="a77a26af-caf0-4c05-83bc-cf10d37b5999" d="M243,120.5a.5.5,0,1,1-.5.5.50057.50057,0,0,1,.5-.5m0-.5a1,1,0,1,0,1,1,1,1,0,0,0-1-1Z" transform="translate(0.14154 0.21231)"/>
    <path class="a77a26af-caf0-4c05-83bc-cf10d37b5999" d="M286,153.5a2.5,2.5,0,1,1-2.5,2.5,2.50284,2.50284,0,0,1,2.5-2.5m0-.5a3,3,0,1,0,3,3,3,3,0,0,0-3-3Z" transform="translate(0.14154 0.21231)"/>
    <path class="a77a26af-caf0-4c05-83bc-cf10d37b5999" d="M286,155.5a.5.5,0,1,1-.5.5.50057.50057,0,0,1,.5-.5m0-.5a1,1,0,1,0,1,1,1,1,0,0,0-1-1Z" transform="translate(0.14154 0.21231)"/>
    <path class="a77a26af-caf0-4c05-83bc-cf10d37b5999" d="M287,63.5a2.5,2.5,0,1,1-2.5,2.5,2.50283,2.50283,0,0,1,2.5-2.5m0-.5a3,3,0,1,0,3,3,3,3,0,0,0-3-3Z" transform="translate(0.14154 0.21231)"/>
    <path class="a77a26af-caf0-4c05-83bc-cf10d37b5999" d="M231.5,167.5A1.5,1.5,0,1,1,230,169a1.50171,1.50171,0,0,1,1.5-1.5m0-.5a2,2,0,1,0,2,2,2,2,0,0,0-2-2Z" transform="translate(0.14154 0.21231)"/>
    <path class="a77a26af-caf0-4c05-83bc-cf10d37b5999" d="M227.5,166a1,1,0,1,1-1,1,1.00113,1.00113,0,0,1,1-1m0-.25a1.25,1.25,0,1,0,1.25,1.25,1.25,1.25,0,0,0-1.25-1.25Z" transform="translate(0.14154 0.21231)"/>
    <path class="a77a26af-caf0-4c05-83bc-cf10d37b5999" d="M232.5,164.75a1.25,1.25,0,1,1-1.25,1.25,1.25143,1.25143,0,0,1,1.25-1.25m0-.25A1.5,1.5,0,1,0,234,166a1.5,1.5,0,0,0-1.5-1.5Z" transform="translate(0.14154 0.21231)"/>
    <path class="a77a26af-caf0-4c05-83bc-cf10d37b5999" d="M232.5,164.25a1.75,1.75,0,1,1-1.75,1.75,1.752,1.752,0,0,1,1.75-1.75m0-.25a2,2,0,1,0,2,2,2,2,0,0,0-2-2Z" transform="translate(0.14154 0.21231)"/>
    <path class="a77a26af-caf0-4c05-83bc-cf10d37b5999" d="M240,148.5a1.5,1.5,0,1,1-1.5,1.5,1.50171,1.50171,0,0,1,1.5-1.5m0-.5a2,2,0,1,0,2,2,2,2,0,0,0-2-2Z" transform="translate(0.14154 0.21231)"/>
    <path class="a77a26af-caf0-4c05-83bc-cf10d37b5999" d="M234.5,156a1,1,0,1,1-1,1,1.00113,1.00113,0,0,1,1-1m0-.25a1.25,1.25,0,1,0,1.25,1.25,1.25,1.25,0,0,0-1.25-1.25Z" transform="translate(0.14154 0.21231)"/>
    <path class="a77a26af-caf0-4c05-83bc-cf10d37b5999" d="M246,103a2,2,0,1,1-2,2,2.00226,2.00226,0,0,1,2-2m0-.5a2.5,2.5,0,1,0,2.5,2.5,2.5,2.5,0,0,0-2.5-2.5Z" transform="translate(0.14154 0.21231)"/>
    <path class="a77a26af-caf0-4c05-83bc-cf10d37b5999" d="M300.5,99.5a1,1,0,1,1-1,1,1.00114,1.00114,0,0,1,1-1m0-.5a1.5,1.5,0,1,0,1.5,1.5,1.5,1.5,0,0,0-1.5-1.5Z" transform="translate(0.14154 0.21231)"/>
    <path class="a77a26af-caf0-4c05-83bc-cf10d37b5999" d="M236,149.5a2.5,2.5,0,1,1-2.5,2.5,2.50284,2.50284,0,0,1,2.5-2.5m0-.5a3,3,0,1,0,3,3,3,3,0,0,0-3-3Z" transform="translate(0.14154 0.21231)"/>
    <path class="a77a26af-caf0-4c05-83bc-cf10d37b5999" d="M236,150.5a1.5,1.5,0,1,1-1.5,1.5,1.50171,1.50171,0,0,1,1.5-1.5m0-.5a2,2,0,1,0,2,2,2,2,0,0,0-2-2Z" transform="translate(0.14154 0.21231)"/>
    <path class="a77a26af-caf0-4c05-83bc-cf10d37b5999" d="M240,149.75a.25.25,0,1,1-.25.25.25028.25028,0,0,1,.25-.25m0-.25a.5.5,0,1,0,.5.5.5.5,0,0,0-.5-.5Z" transform="translate(0.14154 0.21231)"/>
    <path class="a77a26af-caf0-4c05-83bc-cf10d37b5999" d="M282.5,130.5a2,2,0,1,1-2,2,2.00226,2.00226,0,0,1,2-2m0-.5a2.5,2.5,0,1,0,2.5,2.5,2.5,2.5,0,0,0-2.5-2.5Z" transform="translate(0.14154 0.21231)"/>
    <path class="a77a26af-caf0-4c05-83bc-cf10d37b5999" d="M282.5,131.5a1,1,0,1,1-1,1,1.00113,1.00113,0,0,1,1-1m0-.5a1.5,1.5,0,1,0,1.5,1.5,1.5,1.5,0,0,0-1.5-1.5Z" transform="translate(0.14154 0.21231)"/>
    <path class="a77a26af-caf0-4c05-83bc-cf10d37b5999" d="M134,190.5a2.5,2.5,0,1,1-2.5,2.5,2.50285,2.50285,0,0,1,2.5-2.5m0-.5a3,3,0,1,0,3,3,3,3,0,0,0-3-3Z" transform="translate(0.14154 0.21231)"/>
    <path class="a77a26af-caf0-4c05-83bc-cf10d37b5999" d="M134,191.5a1.5,1.5,0,1,1-1.5,1.5,1.5017,1.5017,0,0,1,1.5-1.5m0-.5a2,2,0,1,0,2,2,2,2,0,0,0-2-2Z" transform="translate(0.14154 0.21231)"/>
    <path class="a77a26af-caf0-4c05-83bc-cf10d37b5999" d="M118,195.5a2.5,2.5,0,1,1-2.5,2.5,2.50285,2.50285,0,0,1,2.5-2.5m0-.5a3,3,0,1,0,3,3,3,3,0,0,0-3-3Z" transform="translate(0.14154 0.21231)"/>
    <path class="a77a26af-caf0-4c05-83bc-cf10d37b5999" d="M118,196.5a1.5,1.5,0,1,1-1.5,1.5,1.5017,1.5017,0,0,1,1.5-1.5m0-.5a2,2,0,1,0,2,2,2,2,0,0,0-2-2Z" transform="translate(0.14154 0.21231)"/>
    <path class="a77a26af-caf0-4c05-83bc-cf10d37b5999" d="M111,233.5a2.5,2.5,0,1,1-2.5,2.5,2.50285,2.50285,0,0,1,2.5-2.5m0-.5a3,3,0,1,0,3,3,3,3,0,0,0-3-3Z" transform="translate(0.14154 0.21231)"/>
    <path class="a77a26af-caf0-4c05-83bc-cf10d37b5999" d="M111,234.5a1.5,1.5,0,1,1-1.5,1.5,1.5017,1.5017,0,0,1,1.5-1.5m0-.5a2,2,0,1,0,2,2,2,2,0,0,0-2-2Z" transform="translate(0.14154 0.21231)"/>
    <path class="a77a26af-caf0-4c05-83bc-cf10d37b5999" d="M120,169.5a2.5,2.5,0,1,1-2.5,2.5,2.50285,2.50285,0,0,1,2.5-2.5m0-.5a3,3,0,1,0,3,3,3,3,0,0,0-3-3Z" transform="translate(0.14154 0.21231)"/>
    <path class="a77a26af-caf0-4c05-83bc-cf10d37b5999" d="M108,178.5a2.5,2.5,0,1,1-2.5,2.5,2.50285,2.50285,0,0,1,2.5-2.5m0-.5a3,3,0,1,0,3,3,3,3,0,0,0-3-3Z" transform="translate(0.14154 0.21231)"/>
    <path class="a77a26af-caf0-4c05-83bc-cf10d37b5999" d="M120,170.5a1.5,1.5,0,1,1-1.5,1.5,1.5017,1.5017,0,0,1,1.5-1.5m0-.5a2,2,0,1,0,2,2,2,2,0,0,0-2-2Z" transform="translate(0.14154 0.21231)"/>
    <path class="a77a26af-caf0-4c05-83bc-cf10d37b5999" d="M202,164.5a1.5,1.5,0,1,1-1.5,1.5,1.5017,1.5017,0,0,1,1.5-1.5m0-1a2.5,2.5,0,1,0,2.5,2.5,2.5,2.5,0,0,0-2.5-2.5Z" transform="translate(0.14154 0.21231)"/>
    <path class="a77a26af-caf0-4c05-83bc-cf10d37b5999" d="M212.5,190a1.5,1.5,0,1,1-1.5,1.5,1.50171,1.50171,0,0,1,1.5-1.5m0-1a2.5,2.5,0,1,0,2.5,2.5,2.5,2.5,0,0,0-2.5-2.5Z" transform="translate(0.14154 0.21231)"/>
    <path class="a77a26af-caf0-4c05-83bc-cf10d37b5999" d="M130,158.5a2.5,2.5,0,1,1-2.5,2.5,2.50285,2.50285,0,0,1,2.5-2.5m0-.5a3,3,0,1,0,3,3,3,3,0,0,0-3-3Z" transform="translate(0.14154 0.21231)"/>
    <path class="a77a26af-caf0-4c05-83bc-cf10d37b5999" d="M135,156a2,2,0,1,1-2,2,2.00227,2.00227,0,0,1,2-2m0-1a3,3,0,1,0,3,3,3,3,0,0,0-3-3Z" transform="translate(0.14154 0.21231)"/>
    <path class="a77a26af-caf0-4c05-83bc-cf10d37b5999" d="M130,159.5a1.5,1.5,0,1,1-1.5,1.5,1.5017,1.5017,0,0,1,1.5-1.5m0-.5a2,2,0,1,0,2,2,2,2,0,0,0-2-2Z" transform="translate(0.14154 0.21231)"/>
    <path class="a77a26af-caf0-4c05-83bc-cf10d37b5999" d="M146,185.5a2.5,2.5,0,1,1-2.5,2.5,2.50285,2.50285,0,0,1,2.5-2.5m0-.5a3,3,0,1,0,3,3,3,3,0,0,0-3-3Z" transform="translate(0.14154 0.21231)"/>
    <path class="a77a26af-caf0-4c05-83bc-cf10d37b5999" d="M146,186.5a1.5,1.5,0,1,1-1.5,1.5,1.5017,1.5017,0,0,1,1.5-1.5m0-.5a2,2,0,1,0,2,2,2,2,0,0,0-2-2Z" transform="translate(0.14154 0.21231)"/>
    <path class="a77a26af-caf0-4c05-83bc-cf10d37b5999" d="M271.5,230.25a1.25,1.25,0,1,1-1.25,1.25,1.25143,1.25143,0,0,1,1.25-1.25m0-.75a2,2,0,1,0,2,2,2,2,0,0,0-2-2Z" transform="translate(0.14154 0.21231)"/>
    <path class="a77a26af-caf0-4c05-83bc-cf10d37b5999" d="M259.5,192.25a1.25,1.25,0,1,1-1.25,1.25,1.25143,1.25143,0,0,1,1.25-1.25m0-.75a2,2,0,1,0,2,2,2,2,0,0,0-2-2Z" transform="translate(0.14154 0.21231)"/>
    <path class="a77a26af-caf0-4c05-83bc-cf10d37b5999" d="M262,188.75a1.25,1.25,0,1,1-1.25,1.25,1.25143,1.25143,0,0,1,1.25-1.25m0-.75a2,2,0,1,0,2,2,2,2,0,0,0-2-2Z" transform="translate(0.14154 0.21231)"/>
    <path class="a77a26af-caf0-4c05-83bc-cf10d37b5999" d="M226,194a1,1,0,1,1-1,1,1.00113,1.00113,0,0,1,1-1m0-1.5a2.5,2.5,0,1,0,2.5,2.5,2.5,2.5,0,0,0-2.5-2.5Z" transform="translate(0.14154 0.21231)"/>
    <path class="a77a26af-caf0-4c05-83bc-cf10d37b5999" d="M209,188a2,2,0,1,1-2,2,2.00226,2.00226,0,0,1,2-2m0-.5a2.5,2.5,0,1,0,2.5,2.5,2.5,2.5,0,0,0-2.5-2.5Z" transform="translate(0.14154 0.21231)"/>
    <path class="a77a26af-caf0-4c05-83bc-cf10d37b5999" d="M222,172a2,2,0,1,1-2,2,2.00226,2.00226,0,0,1,2-2m0-.5a2.5,2.5,0,1,0,2.5,2.5,2.5,2.5,0,0,0-2.5-2.5Z" transform="translate(0.14154 0.21231)"/>
    <path class="a77a26af-caf0-4c05-83bc-cf10d37b5999" d="M260,174.5a1.5,1.5,0,1,1-1.5,1.5,1.50171,1.50171,0,0,1,1.5-1.5m0-.5a2,2,0,1,0,2,2,2,2,0,0,0-2-2Z" transform="translate(0.14154 0.21231)"/>
    <path class="a77a26af-caf0-4c05-83bc-cf10d37b5999" d="M253,185.25a.75.75,0,1,1-.75.75.75086.75086,0,0,1,.75-.75m0-.25a1,1,0,1,0,1,1,1,1,0,0,0-1-1Z" transform="translate(0.14154 0.21231)"/>
    <path class="a77a26af-caf0-4c05-83bc-cf10d37b5999" d="M230,176a1,1,0,1,1-1,1,1.00113,1.00113,0,0,1,1-1m0-.5a1.5,1.5,0,1,0,1.5,1.5,1.5,1.5,0,0,0-1.5-1.5Z" transform="translate(0.14154 0.21231)"/>
    <path class="a77a26af-caf0-4c05-83bc-cf10d37b5999" d="M257,176.5a1.5,1.5,0,1,1-1.5,1.5,1.50171,1.50171,0,0,1,1.5-1.5m0-.5a2,2,0,1,0,2,2,2,2,0,0,0-2-2Z" transform="translate(0.14154 0.21231)"/>
    <path class="a77a26af-caf0-4c05-83bc-cf10d37b5999" d="M257,177.75a.25.25,0,1,1-.25.25.25028.25028,0,0,1,.25-.25m0-.75a1,1,0,1,0,1,1,1,1,0,0,0-1-1Z" transform="translate(0.14154 0.21231)"/>
    <path class="a77a26af-caf0-4c05-83bc-cf10d37b5999" d="M254,193.5a1.5,1.5,0,1,1-1.5,1.5,1.50171,1.50171,0,0,1,1.5-1.5m0-.5a2,2,0,1,0,2,2,2,2,0,0,0-2-2Z" transform="translate(0.14154 0.21231)"/>
    <path class="a77a26af-caf0-4c05-83bc-cf10d37b5999" d="M254,194.5a.5.5,0,1,1-.5.5.50057.50057,0,0,1,.5-.5m0-.5a1,1,0,1,0,1,1,1,1,0,0,0-1-1Z" transform="translate(0.14154 0.21231)"/>
    <path class="a77a26af-caf0-4c05-83bc-cf10d37b5999" d="M292,200.5a1.5,1.5,0,1,1-1.5,1.5,1.50171,1.50171,0,0,1,1.5-1.5m0-.5a2,2,0,1,0,2,2,2,2,0,0,0-2-2Z" transform="translate(0.14154 0.21231)"/>
    <path class="a77a26af-caf0-4c05-83bc-cf10d37b5999" d="M244,200a1,1,0,1,1-1,1,1.00113,1.00113,0,0,1,1-1m0-.5a1.5,1.5,0,1,0,1.5,1.5,1.5,1.5,0,0,0-1.5-1.5Z" transform="translate(0.14154 0.21231)"/>
    <path class="a77a26af-caf0-4c05-83bc-cf10d37b5999" d="M318,206a1,1,0,1,1-1,1,1.00113,1.00113,0,0,1,1-1m0-.5a1.5,1.5,0,1,0,1.5,1.5,1.5,1.5,0,0,0-1.5-1.5Z" transform="translate(0.14154 0.21231)"/>
    <path class="a77a26af-caf0-4c05-83bc-cf10d37b5999" d="M253,184.5a1.5,1.5,0,1,1-1.5,1.5,1.50171,1.50171,0,0,1,1.5-1.5m0-.5a2,2,0,1,0,2,2,2,2,0,0,0-2-2Z" transform="translate(0.14154 0.21231)"/>
    <path class="a77a26af-caf0-4c05-83bc-cf10d37b5999" d="M258,174.5a1.5,1.5,0,1,1-1.5,1.5,1.50171,1.50171,0,0,1,1.5-1.5m0-.5a2,2,0,1,0,2,2,2,2,0,0,0-2-2Z" transform="translate(0.14154 0.21231)"/>
    <path class="a77a26af-caf0-4c05-83bc-cf10d37b5999" d="M476,244.5a1.5,1.5,0,1,1-1.5,1.5,1.50171,1.50171,0,0,1,1.5-1.5m0-1a2.5,2.5,0,1,0,2.5,2.5,2.5,2.5,0,0,0-2.5-2.5Z" transform="translate(0.14154 0.21231)"/>
    <path class="a77a26af-caf0-4c05-83bc-cf10d37b5999" d="M476,245.75a.25.25,0,1,1-.25.25.25026.25026,0,0,1,.25-.25m0-.5a.75.75,0,1,0,.75.75.75.75,0,0,0-.75-.75Z" transform="translate(0.14154 0.21231)"/>
    <path class="a77a26af-caf0-4c05-83bc-cf10d37b5999" d="M312,209.25a.75.75,0,1,1-.75.75.75086.75086,0,0,1,.75-.75m0-.25a1,1,0,1,0,1,1,1,1,0,0,0-1-1Z" transform="translate(0.14154 0.21231)"/>
    <path class="a77a26af-caf0-4c05-83bc-cf10d37b5999" d="M337,241.5a1.5,1.5,0,1,1-1.5,1.5,1.50171,1.50171,0,0,1,1.5-1.5m0-.5a2,2,0,1,0,2,2,2,2,0,0,0-2-2Z" transform="translate(0.14154 0.21231)"/>
    <path class="a77a26af-caf0-4c05-83bc-cf10d37b5999" d="M337,242.25a.75.75,0,1,1-.75.75.75086.75086,0,0,1,.75-.75m0-.25a1,1,0,1,0,1,1,1,1,0,0,0-1-1Z" transform="translate(0.14154 0.21231)"/>
    <path class="a77a26af-caf0-4c05-83bc-cf10d37b5999" d="M377,235.5a1.5,1.5,0,1,1-1.5,1.5,1.50171,1.50171,0,0,1,1.5-1.5m0-.5a2,2,0,1,0,2,2,2,2,0,0,0-2-2Z" transform="translate(0.14154 0.21231)"/>
    <path class="a77a26af-caf0-4c05-83bc-cf10d37b5999" d="M369,247.75a1.25,1.25,0,1,1-1.25,1.25,1.25143,1.25143,0,0,1,1.25-1.25m0-.75a2,2,0,1,0,2,2,2,2,0,0,0-2-2Z" transform="translate(0.14154 0.21231)"/>
    <path class="a77a26af-caf0-4c05-83bc-cf10d37b5999" d="M377,236.25a.75.75,0,1,1-.75.75.75086.75086,0,0,1,.75-.75m0-.25a1,1,0,1,0,1,1,1,1,0,0,0-1-1Z" transform="translate(0.14154 0.21231)"/>
    <path class="a77a26af-caf0-4c05-83bc-cf10d37b5999" d="M365,237.5a1.5,1.5,0,1,1-1.5,1.5,1.50171,1.50171,0,0,1,1.5-1.5m0-.5a2,2,0,1,0,2,2,2,2,0,0,0-2-2Z" transform="translate(0.14154 0.21231)"/>
    <path class="a77a26af-caf0-4c05-83bc-cf10d37b5999" d="M403,231.5a1.5,1.5,0,1,1-1.5,1.5,1.50171,1.50171,0,0,1,1.5-1.5m0-.5a2,2,0,1,0,2,2,2,2,0,0,0-2-2Z" transform="translate(0.14154 0.21231)"/>
    <path class="a77a26af-caf0-4c05-83bc-cf10d37b5999" d="M430,228a1,1,0,1,1-1,1,1.00113,1.00113,0,0,1,1-1m0-.5a1.5,1.5,0,1,0,1.5,1.5,1.5,1.5,0,0,0-1.5-1.5Z" transform="translate(0.14154 0.21231)"/>
    <path class="a77a26af-caf0-4c05-83bc-cf10d37b5999" d="M252,202.5a1.5,1.5,0,1,1-1.5,1.5,1.50171,1.50171,0,0,1,1.5-1.5m0-.5a2,2,0,1,0,2,2,2,2,0,0,0-2-2Z" transform="translate(0.14154 0.21231)"/>
    <path class="a77a26af-caf0-4c05-83bc-cf10d37b5999" d="M252,203.25a.75.75,0,1,1-.75.75.75086.75086,0,0,1,.75-.75m0-.25a1,1,0,1,0,1,1,1,1,0,0,0-1-1Z" transform="translate(0.14154 0.21231)"/>
    <path class="a77a26af-caf0-4c05-83bc-cf10d37b5999" d="M312,208.5a1.5,1.5,0,1,1-1.5,1.5,1.50171,1.50171,0,0,1,1.5-1.5m0-.5a2,2,0,1,0,2,2,2,2,0,0,0-2-2Z" transform="translate(0.14154 0.21231)"/>
    <path class="a77a26af-caf0-4c05-83bc-cf10d37b5999" d="M441,224.5a2.5,2.5,0,1,1-2.5,2.5,2.50284,2.50284,0,0,1,2.5-2.5m0-.5a3,3,0,1,0,3,3,3,3,0,0,0-3-3Z" transform="translate(0.14154 0.21231)"/>
    <path class="a77a26af-caf0-4c05-83bc-cf10d37b5999" d="M483,238a1,1,0,1,1-1,1,1.00113,1.00113,0,0,1,1-1m0-2a3,3,0,1,0,3,3,3,3,0,0,0-3-3Z" transform="translate(0.14154 0.21231)"/>
    <path class="a77a26af-caf0-4c05-83bc-cf10d37b5999" d="M434,263.5a1.5,1.5,0,1,1-1.5,1.5,1.50172,1.50172,0,0,1,1.5-1.5m0-1a2.5,2.5,0,1,0,2.5,2.5,2.5,2.5,0,0,0-2.5-2.5Z" transform="translate(0.14154 0.21231)"/>
    <path class="a77a26af-caf0-4c05-83bc-cf10d37b5999" d="M431,268a2,2,0,1,1-2,2,2.00226,2.00226,0,0,1,2-2m0-.5a2.5,2.5,0,1,0,2.5,2.5,2.5,2.5,0,0,0-2.5-2.5Z" transform="translate(0.14154 0.21231)"/>
    <path class="a77a26af-caf0-4c05-83bc-cf10d37b5999" d="M234,218a2,2,0,1,1-2,2,2.00226,2.00226,0,0,1,2-2m0-.5a2.5,2.5,0,1,0,2.5,2.5,2.5,2.5,0,0,0-2.5-2.5Z" transform="translate(0.14154 0.21231)"/>
    <path class="a77a26af-caf0-4c05-83bc-cf10d37b5999" d="M234,219.5a.5.5,0,1,1-.5.5.50057.50057,0,0,1,.5-.5m0-.25a.75.75,0,1,0,.75.75.75.75,0,0,0-.75-.75Z" transform="translate(0.14154 0.21231)"/>
    <path class="a77a26af-caf0-4c05-83bc-cf10d37b5999" d="M360,227.5a2.5,2.5,0,1,1-2.5,2.5,2.50284,2.50284,0,0,1,2.5-2.5m0-.5a3,3,0,1,0,3,3,3,3,0,0,0-3-3Z" transform="translate(0.14154 0.21231)"/>
    <path class="a77a26af-caf0-4c05-83bc-cf10d37b5999" d="M360,229.25a.75.75,0,1,1-.75.75.75086.75086,0,0,1,.75-.75m0-.25a1,1,0,1,0,1,1,1,1,0,0,0-1-1Z" transform="translate(0.14154 0.21231)"/>
    <path class="a77a26af-caf0-4c05-83bc-cf10d37b5999" d="M400,243.5a2.5,2.5,0,1,1-2.5,2.5,2.50284,2.50284,0,0,1,2.5-2.5m0-.5a3,3,0,1,0,3,3,3,3,0,0,0-3-3Z" transform="translate(0.14154 0.21231)"/>
    <path class="a77a26af-caf0-4c05-83bc-cf10d37b5999" d="M400,245.25a.75.75,0,1,1-.75.75.75086.75086,0,0,1,.75-.75m0-.25a1,1,0,1,0,1,1,1,1,0,0,0-1-1Z" transform="translate(0.14154 0.21231)"/>
    <path class="a77a26af-caf0-4c05-83bc-cf10d37b5999" d="M437,259a2,2,0,1,1-2,2,2.00226,2.00226,0,0,1,2-2m0-1a3,3,0,1,0,3,3,3,3,0,0,0-3-3Z" transform="translate(0.14154 0.21231)"/>
    <path class="a77a26af-caf0-4c05-83bc-cf10d37b5999" d="M437,260.5a.5.5,0,1,1-.5.5.50057.50057,0,0,1,.5-.5m0-.5a1,1,0,1,0,1,1,1,1,0,0,0-1-1Z" transform="translate(0.14154 0.21231)"/>
    <path class="a77a26af-caf0-4c05-83bc-cf10d37b5999" d="M391,244.5a2.5,2.5,0,1,1-2.5,2.5,2.50284,2.50284,0,0,1,2.5-2.5m0-.5a3,3,0,1,0,3,3,3,3,0,0,0-3-3Z" transform="translate(0.14154 0.21231)"/>
    <path class="a77a26af-caf0-4c05-83bc-cf10d37b5999" d="M239,198.5a1.5,1.5,0,1,1-1.5,1.5,1.50171,1.50171,0,0,1,1.5-1.5m0-.5a2,2,0,1,0,2,2,2,2,0,0,0-2-2Z" transform="translate(0.14154 0.21231)"/>
    <path class="a77a26af-caf0-4c05-83bc-cf10d37b5999" d="M220,220.5a1.5,1.5,0,1,1-1.5,1.5,1.50171,1.50171,0,0,1,1.5-1.5m0-.5a2,2,0,1,0,2,2,2,2,0,0,0-2-2Z" transform="translate(0.14154 0.21231)"/>
    <path class="a77a26af-caf0-4c05-83bc-cf10d37b5999" d="M237.5,223.25a1.25,1.25,0,1,1-1.25,1.25,1.25143,1.25143,0,0,1,1.25-1.25m0-.75a2,2,0,1,0,2,2,2,2,0,0,0-2-2Z" transform="translate(0.14154 0.21231)"/>
    <path class="a77a26af-caf0-4c05-83bc-cf10d37b5999" d="M220,218.25a.75.75,0,1,1-.75.75.75086.75086,0,0,1,.75-.75m0-.75a1.5,1.5,0,1,0,1.5,1.5,1.5,1.5,0,0,0-1.5-1.5Z" transform="translate(0.14154 0.21231)"/>
    <path class="a77a26af-caf0-4c05-83bc-cf10d37b5999" d="M248,192.5a1.5,1.5,0,1,1-1.5,1.5,1.50171,1.50171,0,0,1,1.5-1.5m0-1a2.5,2.5,0,1,0,2.5,2.5,2.5,2.5,0,0,0-2.5-2.5Z" transform="translate(0.14154 0.21231)"/>
    <path class="a77a26af-caf0-4c05-83bc-cf10d37b5999" d="M246.5,182.5a1,1,0,1,1-1,1,1.00113,1.00113,0,0,1,1-1m0-1a2,2,0,1,0,2,2,2,2,0,0,0-2-2Z" transform="translate(0.14154 0.21231)"/>
    <path class="a77a26af-caf0-4c05-83bc-cf10d37b5999" d="M239,199.25a.75.75,0,1,1-.75.75.75086.75086,0,0,1,.75-.75m0-.25a1,1,0,1,0,1,1,1,1,0,0,0-1-1Z" transform="translate(0.14154 0.21231)"/>
    <path class="a77a26af-caf0-4c05-83bc-cf10d37b5999" d="M227,188a2,2,0,1,1-2,2,2.00226,2.00226,0,0,1,2-2m0-.5a2.5,2.5,0,1,0,2.5,2.5,2.5,2.5,0,0,0-2.5-2.5Z" transform="translate(0.14154 0.21231)"/>
    <path class="a77a26af-caf0-4c05-83bc-cf10d37b5999" d="M200,186a2,2,0,1,1-2,2,2.00227,2.00227,0,0,1,2-2m0-.5a2.5,2.5,0,1,0,2.5,2.5,2.5,2.5,0,0,0-2.5-2.5Z" transform="translate(0.14154 0.21231)"/>
    <path class="a77a26af-caf0-4c05-83bc-cf10d37b5999" d="M200,187.5a.5.5,0,1,1-.5.5.50057.50057,0,0,1,.5-.5m0-.5a1,1,0,1,0,1,1,1,1,0,0,0-1-1Z" transform="translate(0.14154 0.21231)"/>
    <path class="a77a26af-caf0-4c05-83bc-cf10d37b5999" d="M201,183a2,2,0,1,1-2,2,2.00227,2.00227,0,0,1,2-2m0-.5a2.5,2.5,0,1,0,2.5,2.5,2.5,2.5,0,0,0-2.5-2.5Z" transform="translate(0.14154 0.21231)"/>
    <path class="a77a26af-caf0-4c05-83bc-cf10d37b5999" d="M211.5,184.5a2,2,0,1,1-2,2,2.00226,2.00226,0,0,1,2-2m0-.5a2.5,2.5,0,1,0,2.5,2.5,2.5,2.5,0,0,0-2.5-2.5Z" transform="translate(0.14154 0.21231)"/>
    <path class="a77a26af-caf0-4c05-83bc-cf10d37b5999" d="M216.5,185.5a2,2,0,1,1-2,2,2.00226,2.00226,0,0,1,2-2m0-.5a2.5,2.5,0,1,0,2.5,2.5,2.5,2.5,0,0,0-2.5-2.5Z" transform="translate(0.14154 0.21231)"/>
    <path class="a77a26af-caf0-4c05-83bc-cf10d37b5999" d="M233.5,189a1.5,1.5,0,1,1-1.5,1.5,1.50171,1.50171,0,0,1,1.5-1.5m0-1a2.5,2.5,0,1,0,2.5,2.5,2.5,2.5,0,0,0-2.5-2.5Z" transform="translate(0.14154 0.21231)"/>
    <path class="a77a26af-caf0-4c05-83bc-cf10d37b5999" d="M208,166a2,2,0,1,1-2,2,2.00226,2.00226,0,0,1,2-2m0-.5a2.5,2.5,0,1,0,2.5,2.5,2.5,2.5,0,0,0-2.5-2.5Z" transform="translate(0.14154 0.21231)"/>
    <path class="a77a26af-caf0-4c05-83bc-cf10d37b5999" d="M208,167.5a.5.5,0,1,1-.5.5.50057.50057,0,0,1,.5-.5m0-.5a1,1,0,1,0,1,1,1,1,0,0,0-1-1Z" transform="translate(0.14154 0.21231)"/>
    <path class="a77a26af-caf0-4c05-83bc-cf10d37b5999" d="M213,168a2,2,0,1,1-2,2,2.00226,2.00226,0,0,1,2-2m0-.5a2.5,2.5,0,1,0,2.5,2.5,2.5,2.5,0,0,0-2.5-2.5Z" transform="translate(0.14154 0.21231)"/>
    <path class="a77a26af-caf0-4c05-83bc-cf10d37b5999" d="M237.5,164a1.5,1.5,0,1,1-1.5,1.5,1.50171,1.50171,0,0,1,1.5-1.5m0-.5a2,2,0,1,0,2,2,2,2,0,0,0-2-2Z" transform="translate(0.14154 0.21231)"/>
    <path class="a77a26af-caf0-4c05-83bc-cf10d37b5999" d="M231,171.5a1.5,1.5,0,1,1-1.5,1.5,1.50171,1.50171,0,0,1,1.5-1.5m0-.5a2,2,0,1,0,2,2,2,2,0,0,0-2-2Z" transform="translate(0.14154 0.21231)"/>
    <path class="a77a26af-caf0-4c05-83bc-cf10d37b5999" d="M234,167.25a1.75,1.75,0,1,1-1.75,1.75,1.752,1.752,0,0,1,1.75-1.75m0-.75a2.5,2.5,0,1,0,2.5,2.5,2.5,2.5,0,0,0-2.5-2.5Z" transform="translate(0.14154 0.21231)"/>
    <path class="a77a26af-caf0-4c05-83bc-cf10d37b5999" d="M196,156.5a2.5,2.5,0,1,1-2.5,2.5,2.50285,2.50285,0,0,1,2.5-2.5m0-.5a3,3,0,1,0,3,3,3,3,0,0,0-3-3Z" transform="translate(0.14154 0.21231)"/>
    <path class="a77a26af-caf0-4c05-83bc-cf10d37b5999" d="M196,157.5a1.5,1.5,0,1,1-1.5,1.5,1.5017,1.5017,0,0,1,1.5-1.5m0-.5a2,2,0,1,0,2,2,2,2,0,0,0-2-2Z" transform="translate(0.14154 0.21231)"/>
    <path class="a77a26af-caf0-4c05-83bc-cf10d37b5999" d="M206,169.5a2.5,2.5,0,1,1-2.5,2.5,2.50284,2.50284,0,0,1,2.5-2.5m0-.5a3,3,0,1,0,3,3,3,3,0,0,0-3-3Z" transform="translate(0.14154 0.21231)"/>
    <path class="a77a26af-caf0-4c05-83bc-cf10d37b5999" d="M235.5,334.75a1.75,1.75,0,1,1-1.75,1.75,1.752,1.752,0,0,1,1.75-1.75m0-.75a2.5,2.5,0,1,0,2.5,2.5,2.5,2.5,0,0,0-2.5-2.5Z" transform="translate(0.14154 0.21231)"/>
    <path class="a77a26af-caf0-4c05-83bc-cf10d37b5999" d="M259.5,354.75a1.75,1.75,0,1,1-1.75,1.75,1.752,1.752,0,0,1,1.75-1.75m0-.75a2.5,2.5,0,1,0,2.5,2.5,2.5,2.5,0,0,0-2.5-2.5Z" transform="translate(0.14154 0.21231)"/>
    <path class="a77a26af-caf0-4c05-83bc-cf10d37b5999" d="M188.5,246.75a1.75,1.75,0,1,1-1.75,1.75,1.752,1.752,0,0,1,1.75-1.75m0-.75a2.5,2.5,0,1,0,2.5,2.5,2.5,2.5,0,0,0-2.5-2.5Z" transform="translate(0.14154 0.21231)"/>
    <path class="a77a26af-caf0-4c05-83bc-cf10d37b5999" d="M185,215.75a1.25,1.25,0,1,1-1.25,1.25,1.25142,1.25142,0,0,1,1.25-1.25m0-.75a2,2,0,1,0,2,2,2,2,0,0,0-2-2Z" transform="translate(0.14154 0.21231)"/>
    <path class="a77a26af-caf0-4c05-83bc-cf10d37b5999" d="M183,211a1,1,0,1,1-1,1,1.00112,1.00112,0,0,1,1-1m0-1a2,2,0,1,0,2,2,2,2,0,0,0-2-2Z" transform="translate(0.14154 0.21231)"/>
    <path class="a77a26af-caf0-4c05-83bc-cf10d37b5999" d="M95,154.5a1.5,1.5,0,1,1-1.5,1.5,1.5017,1.5017,0,0,1,1.5-1.5m0-.25A1.75,1.75,0,1,0,96.75,156,1.75,1.75,0,0,0,95,154.25Z" transform="translate(0.14154 0.21231)"/>
    <path class="a77a26af-caf0-4c05-83bc-cf10d37b5999" d="M95,155.5a.5.5,0,1,1-.5.5.50057.50057,0,0,1,.5-.5m0-.25a.75.75,0,1,0,.75.75.75.75,0,0,0-.75-.75Z" transform="translate(0.14154 0.21231)"/>
    <path class="a77a26af-caf0-4c05-83bc-cf10d37b5999" d="M79,186a2,2,0,1,1-2,2,2.00227,2.00227,0,0,1,2-2m0-.5a2.5,2.5,0,1,0,2.5,2.5,2.5,2.5,0,0,0-2.5-2.5Z" transform="translate(0.14154 0.21231)"/>
    <path class="a77a26af-caf0-4c05-83bc-cf10d37b5999" d="M139,210.5a1.5,1.5,0,1,1-1.5,1.5,1.5017,1.5017,0,0,1,1.5-1.5m0-.25a1.75,1.75,0,1,0,1.75,1.75,1.75,1.75,0,0,0-1.75-1.75Z" transform="translate(0.14154 0.21231)"/>
    <path class="a77a26af-caf0-4c05-83bc-cf10d37b5999" d="M151,224.75a1.25,1.25,0,1,1-1.25,1.25,1.25142,1.25142,0,0,1,1.25-1.25m0-.75a2,2,0,1,0,2,2,2,2,0,0,0-2-2Z" transform="translate(0.14154 0.21231)"/>
    <path class="a77a26af-caf0-4c05-83bc-cf10d37b5999" d="M203,256.75a1.25,1.25,0,1,1-1.25,1.25,1.25143,1.25143,0,0,1,1.25-1.25m0-.75a2,2,0,1,0,2,2,2,2,0,0,0-2-2Z" transform="translate(0.14154 0.21231)"/>
    <path class="a77a26af-caf0-4c05-83bc-cf10d37b5999" d="M188,244.75a1.25,1.25,0,1,1-1.25,1.25,1.25142,1.25142,0,0,1,1.25-1.25m0-.75a2,2,0,1,0,2,2,2,2,0,0,0-2-2Z" transform="translate(0.14154 0.21231)"/>
    <path class="a77a26af-caf0-4c05-83bc-cf10d37b5999" d="M202,256.75a1.25,1.25,0,1,1-1.25,1.25,1.25143,1.25143,0,0,1,1.25-1.25m0-.75a2,2,0,1,0,2,2,2,2,0,0,0-2-2Z" transform="translate(0.14154 0.21231)"/>
    <path class="a77a26af-caf0-4c05-83bc-cf10d37b5999" d="M190,250.25a1.75,1.75,0,1,1-1.75,1.75,1.752,1.752,0,0,1,1.75-1.75m0-.75a2.5,2.5,0,1,0,2.5,2.5,2.5,2.5,0,0,0-2.5-2.5Z" transform="translate(0.14154 0.21231)"/>
    <path class="a77a26af-caf0-4c05-83bc-cf10d37b5999" d="M160.5,285.75a1.75,1.75,0,1,1-1.75,1.75,1.752,1.752,0,0,1,1.75-1.75m0-.75a2.5,2.5,0,1,0,2.5,2.5,2.5,2.5,0,0,0-2.5-2.5Z" transform="translate(0.14154 0.21231)"/>
    <path class="a77a26af-caf0-4c05-83bc-cf10d37b5999" d="M215.5,330.75a1.75,1.75,0,1,1-1.75,1.75,1.752,1.752,0,0,1,1.75-1.75m0-.75a2.5,2.5,0,1,0,2.5,2.5,2.5,2.5,0,0,0-2.5-2.5Z" transform="translate(0.14154 0.21231)"/>
    <path class="a77a26af-caf0-4c05-83bc-cf10d37b5999" d="M211.5,318.75a.75.75,0,1,1-.75.75.75086.75086,0,0,1,.75-.75m0-.75a1.5,1.5,0,1,0,1.5,1.5,1.5,1.5,0,0,0-1.5-1.5Z" transform="translate(0.14154 0.21231)"/>
    <path class="a77a26af-caf0-4c05-83bc-cf10d37b5999" d="M120,198.5a.5.5,0,1,1-.5.5.50057.50057,0,0,1,.5-.5m0-.25a.75.75,0,1,0,.75.75.75.75,0,0,0-.75-.75Z" transform="translate(0.14154 0.21231)"/>
    <path class="a77a26af-caf0-4c05-83bc-cf10d37b5999" d="M126,178.5a1.5,1.5,0,1,1-1.5,1.5,1.5017,1.5017,0,0,1,1.5-1.5m0-.25a1.75,1.75,0,1,0,1.75,1.75,1.75,1.75,0,0,0-1.75-1.75Z" transform="translate(0.14154 0.21231)"/>
    <path class="a77a26af-caf0-4c05-83bc-cf10d37b5999" d="M126,179.5a.5.5,0,1,1-.5.5.50057.50057,0,0,1,.5-.5m0-.25a.75.75,0,1,0,.75.75.75.75,0,0,0-.75-.75Z" transform="translate(0.14154 0.21231)"/>
    <path class="a77a26af-caf0-4c05-83bc-cf10d37b5999" d="M93,178.5a1.5,1.5,0,1,1-1.5,1.5,1.5017,1.5017,0,0,1,1.5-1.5m0-.25A1.75,1.75,0,1,0,94.75,180,1.75,1.75,0,0,0,93,178.25Z" transform="translate(0.14154 0.21231)"/>
    <path class="a77a26af-caf0-4c05-83bc-cf10d37b5999" d="M93,179.5a.5.5,0,1,1-.5.5.50057.50057,0,0,1,.5-.5m0-.25a.75.75,0,1,0,.75.75.75.75,0,0,0-.75-.75Z" transform="translate(0.14154 0.21231)"/>
    <path class="a77a26af-caf0-4c05-83bc-cf10d37b5999" d="M123,162.75a1.25,1.25,0,1,1-1.25,1.25,1.25142,1.25142,0,0,1,1.25-1.25m0-.75a2,2,0,1,0,2,2,2,2,0,0,0-2-2Z" transform="translate(0.14154 0.21231)"/>
    <path class="a77a26af-caf0-4c05-83bc-cf10d37b5999" d="M123,163.5a.5.5,0,1,1-.5.5.50057.50057,0,0,1,.5-.5m0-.25a.75.75,0,1,0,.75.75.75.75,0,0,0-.75-.75Z" transform="translate(0.14154 0.21231)"/>
    <path class="a77a26af-caf0-4c05-83bc-cf10d37b5999" d="M165,173.5a1.5,1.5,0,1,1-1.5,1.5,1.5017,1.5017,0,0,1,1.5-1.5m0-1a2.5,2.5,0,1,0,2.5,2.5,2.5,2.5,0,0,0-2.5-2.5Z" transform="translate(0.14154 0.21231)"/>
    <path class="a77a26af-caf0-4c05-83bc-cf10d37b5999" d="M165,174.75a.25.25,0,1,1-.25.25.25028.25028,0,0,1,.25-.25m0-.5a.75.75,0,1,0,.75.75.75.75,0,0,0-.75-.75Z" transform="translate(0.14154 0.21231)"/>
    <path class="a77a26af-caf0-4c05-83bc-cf10d37b5999" d="M182,156.5a1.5,1.5,0,1,1-1.5,1.5,1.5017,1.5017,0,0,1,1.5-1.5m0-.5a2,2,0,1,0,2,2,2,2,0,0,0-2-2Z" transform="translate(0.14154 0.21231)"/>
    <path class="a77a26af-caf0-4c05-83bc-cf10d37b5999" d="M182,157.5a.5.5,0,1,1-.5.5.50057.50057,0,0,1,.5-.5m0-.25a.75.75,0,1,0,.75.75.75.75,0,0,0-.75-.75Z" transform="translate(0.14154 0.21231)"/>
    <path class="a77a26af-caf0-4c05-83bc-cf10d37b5999" d="M206,152.5a1.5,1.5,0,1,1-1.5,1.5,1.50171,1.50171,0,0,1,1.5-1.5m0-.5a2,2,0,1,0,2,2,2,2,0,0,0-2-2Z" transform="translate(0.14154 0.21231)"/>
    <path class="a77a26af-caf0-4c05-83bc-cf10d37b5999" d="M206,153.5a.5.5,0,1,1-.5.5.50057.50057,0,0,1,.5-.5m0-.25a.75.75,0,1,0,.75.75.75.75,0,0,0-.75-.75Z" transform="translate(0.14154 0.21231)"/>
    <path class="a77a26af-caf0-4c05-83bc-cf10d37b5999" d="M227,165.5a1.5,1.5,0,1,1-1.5,1.5,1.50171,1.50171,0,0,1,1.5-1.5m0-.5a2,2,0,1,0,2,2,2,2,0,0,0-2-2Z" transform="translate(0.14154 0.21231)"/>
    <path class="a77a26af-caf0-4c05-83bc-cf10d37b5999" d="M227,166.5a.5.5,0,1,1-.5.5.50057.50057,0,0,1,.5-.5m0-.25a.75.75,0,1,0,.75.75.75.75,0,0,0-.75-.75Z" transform="translate(0.14154 0.21231)"/>
    <path class="a77a26af-caf0-4c05-83bc-cf10d37b5999" d="M66,160.5a1.5,1.5,0,1,1-1.5,1.5,1.5017,1.5017,0,0,1,1.5-1.5m0-.25A1.75,1.75,0,1,0,67.75,162,1.75,1.75,0,0,0,66,160.25Z" transform="translate(0.14154 0.21231)"/>
    <path class="a77a26af-caf0-4c05-83bc-cf10d37b5999" d="M66,161.5a.5.5,0,1,1-.5.5.50057.50057,0,0,1,.5-.5m0-.25a.75.75,0,1,0,.75.75.75.75,0,0,0-.75-.75Z" transform="translate(0.14154 0.21231)"/>
    <path class="a77a26af-caf0-4c05-83bc-cf10d37b5999" d="M112,200.5a1.5,1.5,0,1,1-1.5,1.5,1.5017,1.5017,0,0,1,1.5-1.5m0-.25a1.75,1.75,0,1,0,1.75,1.75,1.75,1.75,0,0,0-1.75-1.75Z" transform="translate(0.14154 0.21231)"/>
    <path class="a77a26af-caf0-4c05-83bc-cf10d37b5999" d="M84,183.5a1.5,1.5,0,1,1-1.5,1.5,1.5017,1.5017,0,0,1,1.5-1.5m0-.25A1.75,1.75,0,1,0,85.75,185,1.75,1.75,0,0,0,84,183.25Z" transform="translate(0.14154 0.21231)"/>
    <path class="a77a26af-caf0-4c05-83bc-cf10d37b5999" d="M84,184.5a.5.5,0,1,1-.5.5.50057.50057,0,0,1,.5-.5m0-.25a.75.75,0,1,0,.75.75.75.75,0,0,0-.75-.75Z" transform="translate(0.14154 0.21231)"/>
    <path class="a77a26af-caf0-4c05-83bc-cf10d37b5999" d="M98,207.75A1.25,1.25,0,1,1,96.75,209,1.25142,1.25142,0,0,1,98,207.75m0-.5A1.75,1.75,0,1,0,99.75,209,1.75,1.75,0,0,0,98,207.25Z" transform="translate(0.14154 0.21231)"/>
    <path class="a77a26af-caf0-4c05-83bc-cf10d37b5999" d="M98,208.5a.5.5,0,1,1-.5.5.50057.50057,0,0,1,.5-.5m0-.25a.75.75,0,1,0,.75.75.75.75,0,0,0-.75-.75Z" transform="translate(0.14154 0.21231)"/>
    <path class="a77a26af-caf0-4c05-83bc-cf10d37b5999" d="M76,205.75A1.25,1.25,0,1,1,74.75,207,1.25142,1.25142,0,0,1,76,205.75m0-.5A1.75,1.75,0,1,0,77.75,207,1.75,1.75,0,0,0,76,205.25Z" transform="translate(0.14154 0.21231)"/>
    <path class="a77a26af-caf0-4c05-83bc-cf10d37b5999" d="M76,206.5a.5.5,0,1,1-.5.5.50057.50057,0,0,1,.5-.5m0-.25a.75.75,0,1,0,.75.75.75.75,0,0,0-.75-.75Z" transform="translate(0.14154 0.21231)"/>
    <path class="a77a26af-caf0-4c05-83bc-cf10d37b5999" d="M99,175.5a1.5,1.5,0,1,1-1.5,1.5,1.5017,1.5017,0,0,1,1.5-1.5m0-.25a1.75,1.75,0,1,0,1.75,1.75A1.75,1.75,0,0,0,99,175.25Z" transform="translate(0.14154 0.21231)"/>
    <path class="a77a26af-caf0-4c05-83bc-cf10d37b5999" d="M99,176.5a.5.5,0,1,1-.5.5.50057.50057,0,0,1,.5-.5m0-.25a.75.75,0,1,0,.75.75.75.75,0,0,0-.75-.75Z" transform="translate(0.14154 0.21231)"/>
    <path class="a77a26af-caf0-4c05-83bc-cf10d37b5999" d="M95,180.5a1.5,1.5,0,1,1-1.5,1.5,1.5017,1.5017,0,0,1,1.5-1.5m0-.25A1.75,1.75,0,1,0,96.75,182,1.75,1.75,0,0,0,95,180.25Z" transform="translate(0.14154 0.21231)"/>
    <path class="a77a26af-caf0-4c05-83bc-cf10d37b5999" d="M95,181.5a.5.5,0,1,1-.5.5.50057.50057,0,0,1,.5-.5m0-.25a.75.75,0,1,0,.75.75.75.75,0,0,0-.75-.75Z" transform="translate(0.14154 0.21231)"/>
    <path class="a77a26af-caf0-4c05-83bc-cf10d37b5999" d="M120,197.25a1.75,1.75,0,1,1-1.75,1.75,1.752,1.752,0,0,1,1.75-1.75m0-.75a2.5,2.5,0,1,0,2.5,2.5,2.5,2.5,0,0,0-2.5-2.5Z" transform="translate(0.14154 0.21231)"/>
    <path class="a77a26af-caf0-4c05-83bc-cf10d37b5999" d="M179,218.25a.75.75,0,1,1-.75.75.75086.75086,0,0,1,.75-.75m0-.5a1.25,1.25,0,1,0,1.25,1.25,1.25,1.25,0,0,0-1.25-1.25Z" transform="translate(0.14154 0.21231)"/>
    <path class="a77a26af-caf0-4c05-83bc-cf10d37b5999" d="M62,181a2,2,0,1,1-2,2,2.00227,2.00227,0,0,1,2-2m0-.5a2.5,2.5,0,1,0,2.5,2.5,2.5,2.5,0,0,0-2.5-2.5Z" transform="translate(0.14154 0.21231)"/>
    <path class="a77a26af-caf0-4c05-83bc-cf10d37b5999" d="M62,182.5a.5.5,0,1,1-.5.5.50057.50057,0,0,1,.5-.5m0-.5a1,1,0,1,0,1,1,1,1,0,0,0-1-1Z" transform="translate(0.14154 0.21231)"/>
    <path class="a77a26af-caf0-4c05-83bc-cf10d37b5999" d="M58,161a2,2,0,1,1-2,2,2.00227,2.00227,0,0,1,2-2m0-.5a2.5,2.5,0,1,0,2.5,2.5,2.5,2.5,0,0,0-2.5-2.5Z" transform="translate(0.14154 0.21231)"/>
    <path class="a77a26af-caf0-4c05-83bc-cf10d37b5999" d="M58,162.5a.5.5,0,1,1-.5.5.50057.50057,0,0,1,.5-.5m0-.5a1,1,0,1,0,1,1,1,1,0,0,0-1-1Z" transform="translate(0.14154 0.21231)"/>
    <path class="a77a26af-caf0-4c05-83bc-cf10d37b5999" d="M58,142a2,2,0,1,1-2,2,2.00227,2.00227,0,0,1,2-2m0-.5a2.5,2.5,0,1,0,2.5,2.5,2.5,2.5,0,0,0-2.5-2.5Z" transform="translate(0.14154 0.21231)"/>
    <path class="a77a26af-caf0-4c05-83bc-cf10d37b5999" d="M58,143.5a.5.5,0,1,1-.5.5.50057.50057,0,0,1,.5-.5m0-.5a1,1,0,1,0,1,1,1,1,0,0,0-1-1Z" transform="translate(0.14154 0.21231)"/>
    <path class="a77a26af-caf0-4c05-83bc-cf10d37b5999" d="M79,181a2,2,0,1,1-2,2,2.00227,2.00227,0,0,1,2-2m0-.5a2.5,2.5,0,1,0,2.5,2.5,2.5,2.5,0,0,0-2.5-2.5Z" transform="translate(0.14154 0.21231)"/>
    <path class="a77a26af-caf0-4c05-83bc-cf10d37b5999" d="M79,182.25a.75.75,0,1,1-.75.75.75086.75086,0,0,1,.75-.75m0-.25a1,1,0,1,0,1,1,1,1,0,0,0-1-1Z" transform="translate(0.14154 0.21231)"/>
    <path class="a77a26af-caf0-4c05-83bc-cf10d37b5999" d="M95,207.25A1.75,1.75,0,1,1,93.25,209,1.752,1.752,0,0,1,95,207.25m0-.75a2.5,2.5,0,1,0,2.5,2.5,2.5,2.5,0,0,0-2.5-2.5Z" transform="translate(0.14154 0.21231)"/>
    <path class="a77a26af-caf0-4c05-83bc-cf10d37b5999" d="M95,208.25a.75.75,0,1,1-.75.75.75086.75086,0,0,1,.75-.75m0-.25a1,1,0,1,0,1,1,1,1,0,0,0-1-1Z" transform="translate(0.14154 0.21231)"/>
    <path class="a77a26af-caf0-4c05-83bc-cf10d37b5999" d="M142,188a2,2,0,1,1-2,2,2.00227,2.00227,0,0,1,2-2m0-.5a2.5,2.5,0,1,0,2.5,2.5,2.5,2.5,0,0,0-2.5-2.5Z" transform="translate(0.14154 0.21231)"/>
    <path class="a77a26af-caf0-4c05-83bc-cf10d37b5999" d="M83.5,211.5a2,2,0,1,1-2,2,2.00227,2.00227,0,0,1,2-2m0-1a3,3,0,1,0,3,3,3,3,0,0,0-3-3Z" transform="translate(0.14154 0.21231)"/>
    <path class="a77a26af-caf0-4c05-83bc-cf10d37b5999" d="M127,210a1,1,0,1,1-1,1,1.00112,1.00112,0,0,1,1-1m0-.25a1.25,1.25,0,1,0,1.25,1.25,1.25,1.25,0,0,0-1.25-1.25Z" transform="translate(0.14154 0.21231)"/>
    <path class="a77a26af-caf0-4c05-83bc-cf10d37b5999" d="M140,226.75a2.25,2.25,0,1,1-2.25,2.25,2.25255,2.25255,0,0,1,2.25-2.25m0-.75a3,3,0,1,0,3,3,3,3,0,0,0-3-3Z" transform="translate(0.14154 0.21231)"/>
    <path class="a77a26af-caf0-4c05-83bc-cf10d37b5999" d="M178,212.75a2.25,2.25,0,1,1-2.25,2.25,2.25255,2.25255,0,0,1,2.25-2.25m0-.75a3,3,0,1,0,3,3,3,3,0,0,0-3-3Z" transform="translate(0.14154 0.21231)"/>
    <path class="a77a26af-caf0-4c05-83bc-cf10d37b5999" d="M140,228.25a.75.75,0,1,1-.75.75.75086.75086,0,0,1,.75-.75m0-.5a1.25,1.25,0,1,0,1.25,1.25,1.25,1.25,0,0,0-1.25-1.25Z" transform="translate(0.14154 0.21231)"/>
    <path class="a77a26af-caf0-4c05-83bc-cf10d37b5999" d="M205,245.5a1.5,1.5,0,1,1-1.5,1.5,1.5017,1.5017,0,0,1,1.5-1.5m0-.5a2,2,0,1,0,2,2,2,2,0,0,0-2-2Z" transform="translate(0.14154 0.21231)"/>
    <path class="a77a26af-caf0-4c05-83bc-cf10d37b5999" d="M201,253.5a1.5,1.5,0,1,1-1.5,1.5,1.5017,1.5017,0,0,1,1.5-1.5m0-.5a2,2,0,1,0,2,2,2,2,0,0,0-2-2Z" transform="translate(0.14154 0.21231)"/>
    <path class="a77a26af-caf0-4c05-83bc-cf10d37b5999" d="M205,246.25a.75.75,0,1,1-.75.75.75086.75086,0,0,1,.75-.75m0-.25a1,1,0,1,0,1,1,1,1,0,0,0-1-1Z" transform="translate(0.14154 0.21231)"/>
    <path class="a77a26af-caf0-4c05-83bc-cf10d37b5999" d="M242,320a2,2,0,1,1-2,2,2.00226,2.00226,0,0,1,2-2m0-.5a2.5,2.5,0,1,0,2.5,2.5,2.5,2.5,0,0,0-2.5-2.5Z" transform="translate(0.14154 0.21231)"/>
    <path class="a77a26af-caf0-4c05-83bc-cf10d37b5999" d="M306,442a2,2,0,1,1-2,2,2.00226,2.00226,0,0,1,2-2m0-1a3,3,0,1,0,3,3,3,3,0,0,0-3-3Z" transform="translate(0.14154 0.21231)"/>
    <path class="a77a26af-caf0-4c05-83bc-cf10d37b5999" d="M242,352a2,2,0,1,1-2,2,2.00226,2.00226,0,0,1,2-2m0-.5a2.5,2.5,0,1,0,2.5,2.5,2.5,2.5,0,0,0-2.5-2.5Z" transform="translate(0.14154 0.21231)"/>
    <path class="a77a26af-caf0-4c05-83bc-cf10d37b5999" d="M242,352.75a1.25,1.25,0,1,1-1.25,1.25,1.25143,1.25143,0,0,1,1.25-1.25m0-.25a1.5,1.5,0,1,0,1.5,1.5,1.5,1.5,0,0,0-1.5-1.5Z" transform="translate(0.14154 0.21231)"/>
    <path class="a77a26af-caf0-4c05-83bc-cf10d37b5999" d="M202,253.5a1.5,1.5,0,1,1-1.5,1.5,1.5017,1.5017,0,0,1,1.5-1.5m0-.5a2,2,0,1,0,2,2,2,2,0,0,0-2-2Z" transform="translate(0.14154 0.21231)"/>
    <path class="a77a26af-caf0-4c05-83bc-cf10d37b5999" d="M212,255.25a1.75,1.75,0,1,1-1.75,1.75,1.752,1.752,0,0,1,1.75-1.75m0-.75a2.5,2.5,0,1,0,2.5,2.5,2.5,2.5,0,0,0-2.5-2.5Z" transform="translate(0.14154 0.21231)"/>
    <path class="a77a26af-caf0-4c05-83bc-cf10d37b5999" d="M202,254.25a.75.75,0,1,1-.75.75.75086.75086,0,0,1,.75-.75m0-.25a1,1,0,1,0,1,1,1,1,0,0,0-1-1Z" transform="translate(0.14154 0.21231)"/>
    <path class="a77a26af-caf0-4c05-83bc-cf10d37b5999" d="M177,208.75a2.25,2.25,0,1,1-2.25,2.25,2.25255,2.25255,0,0,1,2.25-2.25m0-.75a3,3,0,1,0,3,3,3,3,0,0,0-3-3Z" transform="translate(0.14154 0.21231)"/>
    <path class="a77a26af-caf0-4c05-83bc-cf10d37b5999" d="M177,210.25a.75.75,0,1,1-.75.75.75086.75086,0,0,1,.75-.75m0-.5a1.25,1.25,0,1,0,1.25,1.25,1.25,1.25,0,0,0-1.25-1.25Z" transform="translate(0.14154 0.21231)"/>
    <path class="a77a26af-caf0-4c05-83bc-cf10d37b5999" d="M176,204.75a2.25,2.25,0,1,1-2.25,2.25,2.25255,2.25255,0,0,1,2.25-2.25m0-.75a3,3,0,1,0,3,3,3,3,0,0,0-3-3Z" transform="translate(0.14154 0.21231)"/>
    <path class="a77a26af-caf0-4c05-83bc-cf10d37b5999" d="M66,191.5a2.5,2.5,0,1,1-2.5,2.5,2.50284,2.50284,0,0,1,2.5-2.5m0-.5a3,3,0,1,0,3,3,3,3,0,0,0-3-3Z" transform="translate(0.14154 0.21231)"/>
    <path class="a77a26af-caf0-4c05-83bc-cf10d37b5999" d="M66,193.25a.75.75,0,1,1-.75.75.75086.75086,0,0,1,.75-.75m0-.25a1,1,0,1,0,1,1,1,1,0,0,0-1-1Z" transform="translate(0.14154 0.21231)"/>
    <path class="a77a26af-caf0-4c05-83bc-cf10d37b5999" d="M62,195a2,2,0,1,1-2,2,2.00227,2.00227,0,0,1,2-2m0-.5a2.5,2.5,0,1,0,2.5,2.5,2.5,2.5,0,0,0-2.5-2.5Z" transform="translate(0.14154 0.21231)"/>
    <path class="a77a26af-caf0-4c05-83bc-cf10d37b5999" d="M62,196a1,1,0,1,1-1,1,1.00113,1.00113,0,0,1,1-1m0-.25A1.25,1.25,0,1,0,63.25,197,1.25,1.25,0,0,0,62,195.75Z" transform="translate(0.14154 0.21231)"/>
    <path class="a77a26af-caf0-4c05-83bc-cf10d37b5999" d="M127,209a2,2,0,1,1-2,2,2.00227,2.00227,0,0,1,2-2m0-.5a2.5,2.5,0,1,0,2.5,2.5,2.5,2.5,0,0,0-2.5-2.5Z" transform="translate(0.14154 0.21231)"/>
    <path class="a77a26af-caf0-4c05-83bc-cf10d37b5999" d="M246,197a1,1,0,1,1-1,1,1.00113,1.00113,0,0,1,1-1m0-.5a1.5,1.5,0,1,0,1.5,1.5,1.5,1.5,0,0,0-1.5-1.5Z" transform="translate(0.14154 0.21231)"/>
    <path class="a77a26af-caf0-4c05-83bc-cf10d37b5999" d="M258,193.5a2.5,2.5,0,1,1-2.5,2.5,2.50284,2.50284,0,0,1,2.5-2.5m0-.5a3,3,0,1,0,3,3,3,3,0,0,0-3-3Z" transform="translate(0.14154 0.21231)"/>
    <path class="a77a26af-caf0-4c05-83bc-cf10d37b5999" d="M258,195.75a.25.25,0,1,1-.25.25.25028.25028,0,0,1,.25-.25m0-.5a.75.75,0,1,0,.75.75.75.75,0,0,0-.75-.75Z" transform="translate(0.14154 0.21231)"/>
    <path class="a77a26af-caf0-4c05-83bc-cf10d37b5999" d="M297,215.5a2.5,2.5,0,1,1-2.5,2.5,2.50284,2.50284,0,0,1,2.5-2.5m0-.5a3,3,0,1,0,3,3,3,3,0,0,0-3-3Z" transform="translate(0.14154 0.21231)"/>
    <path class="a77a26af-caf0-4c05-83bc-cf10d37b5999" d="M286,221.75a2.25,2.25,0,1,1-2.25,2.25,2.25255,2.25255,0,0,1,2.25-2.25m0-.75a3,3,0,1,0,3,3,3,3,0,0,0-3-3Z" transform="translate(0.14154 0.21231)"/>
    <path class="a77a26af-caf0-4c05-83bc-cf10d37b5999" d="M297,217.75a.25.25,0,1,1-.25.25.25028.25028,0,0,1,.25-.25m0-.5a.75.75,0,1,0,.75.75.75.75,0,0,0-.75-.75Z" transform="translate(0.14154 0.21231)"/>
    <path class="a77a26af-caf0-4c05-83bc-cf10d37b5999" d="M287,181.5a2.5,2.5,0,1,1-2.5,2.5,2.50284,2.50284,0,0,1,2.5-2.5m0-.5a3,3,0,1,0,3,3,3,3,0,0,0-3-3Z" transform="translate(0.14154 0.21231)"/>
    <path class="a77a26af-caf0-4c05-83bc-cf10d37b5999" d="M287,183.5a.5.5,0,1,1-.5.5.50057.50057,0,0,1,.5-.5m0-.5a1,1,0,1,0,1,1,1,1,0,0,0-1-1Z" transform="translate(0.14154 0.21231)"/>
    <path class="a77a26af-caf0-4c05-83bc-cf10d37b5999" d="M265,188.5a2.5,2.5,0,1,1-2.5,2.5,2.50284,2.50284,0,0,1,2.5-2.5m0-.5a3,3,0,1,0,3,3,3,3,0,0,0-3-3Z" transform="translate(0.14154 0.21231)"/>
    <path class="a77a26af-caf0-4c05-83bc-cf10d37b5999" d="M60,159.5a2.5,2.5,0,1,1-2.5,2.5,2.50284,2.50284,0,0,1,2.5-2.5m0-.5a3,3,0,1,0,3,3,3,3,0,0,0-3-3Z" transform="translate(0.14154 0.21231)"/>
    <path class="a77a26af-caf0-4c05-83bc-cf10d37b5999" d="M60,160.5a1.5,1.5,0,1,1-1.5,1.5,1.5017,1.5017,0,0,1,1.5-1.5m0-.5a2,2,0,1,0,2,2,2,2,0,0,0-2-2Z" transform="translate(0.14154 0.21231)"/>
    <path class="a77a26af-caf0-4c05-83bc-cf10d37b5999" d="M104,158.5a2.5,2.5,0,1,1-2.5,2.5,2.50285,2.50285,0,0,1,2.5-2.5m0-.5a3,3,0,1,0,3,3,3,3,0,0,0-3-3Z" transform="translate(0.14154 0.21231)"/>
    <path class="a77a26af-caf0-4c05-83bc-cf10d37b5999" d="M104,159.5a1.5,1.5,0,1,1-1.5,1.5,1.5017,1.5017,0,0,1,1.5-1.5m0-.5a2,2,0,1,0,2,2,2,2,0,0,0-2-2Z" transform="translate(0.14154 0.21231)"/>
    <path class="a77a26af-caf0-4c05-83bc-cf10d37b5999" d="M47,202.5a2.5,2.5,0,1,1-2.5,2.5,2.50284,2.50284,0,0,1,2.5-2.5m0-.5a3,3,0,1,0,3,3,3,3,0,0,0-3-3Z" transform="translate(0.14154 0.21231)"/>
    <path class="a77a26af-caf0-4c05-83bc-cf10d37b5999" d="M47,203.5a1.5,1.5,0,1,1-1.5,1.5,1.5017,1.5017,0,0,1,1.5-1.5m0-.5a2,2,0,1,0,2,2,2,2,0,0,0-2-2Z" transform="translate(0.14154 0.21231)"/>
    <path class="a77a26af-caf0-4c05-83bc-cf10d37b5999" d="M90,179.5a2.5,2.5,0,1,1-2.5,2.5,2.50285,2.50285,0,0,1,2.5-2.5m0-.5a3,3,0,1,0,3,3,3,3,0,0,0-3-3Z" transform="translate(0.14154 0.21231)"/>
    <path class="a77a26af-caf0-4c05-83bc-cf10d37b5999" d="M94,190a2,2,0,1,1-2,2,2.00227,2.00227,0,0,1,2-2m0-.5a2.5,2.5,0,1,0,2.5,2.5,2.5,2.5,0,0,0-2.5-2.5Z" transform="translate(0.14154 0.21231)"/>
    <path class="a77a26af-caf0-4c05-83bc-cf10d37b5999" d="M97.5,176.5a2,2,0,1,1-2,2,2.00227,2.00227,0,0,1,2-2m0-.5a2.5,2.5,0,1,0,2.5,2.5,2.5,2.5,0,0,0-2.5-2.5Z" transform="translate(0.14154 0.21231)"/>
    <path class="a77a26af-caf0-4c05-83bc-cf10d37b5999" d="M261,138.5a2.5,2.5,0,1,1-2.5,2.5,2.50284,2.50284,0,0,1,2.5-2.5m0-.5a3,3,0,1,0,3,3,3,3,0,0,0-3-3Z" transform="translate(0.14154 0.21231)"/>
    <path class="a77a26af-caf0-4c05-83bc-cf10d37b5999" d="M267,157.5a2.5,2.5,0,1,1-2.5,2.5,2.50284,2.50284,0,0,1,2.5-2.5m0-.5a3,3,0,1,0,3,3,3,3,0,0,0-3-3Z" transform="translate(0.14154 0.21231)"/>
    <path class="a77a26af-caf0-4c05-83bc-cf10d37b5999" d="M267,158.5a1.5,1.5,0,1,1-1.5,1.5,1.50171,1.50171,0,0,1,1.5-1.5m0-.5a2,2,0,1,0,2,2,2,2,0,0,0-2-2Z" transform="translate(0.14154 0.21231)"/>
    <path class="a77a26af-caf0-4c05-83bc-cf10d37b5999" d="M42,157.5a2.5,2.5,0,1,1-2.5,2.5,2.50284,2.50284,0,0,1,2.5-2.5m0-.5a3,3,0,1,0,3,3,3,3,0,0,0-3-3Z" transform="translate(0.14154 0.21231)"/>
    <path class="a77a26af-caf0-4c05-83bc-cf10d37b5999" d="M42,158.5a1.5,1.5,0,1,1-1.5,1.5,1.5017,1.5017,0,0,1,1.5-1.5m0-.5a2,2,0,1,0,2,2,2,2,0,0,0-2-2Z" transform="translate(0.14154 0.21231)"/>
    <path class="a77a26af-caf0-4c05-83bc-cf10d37b5999" d="M63,161.5a2.5,2.5,0,1,1-2.5,2.5,2.50284,2.50284,0,0,1,2.5-2.5m0-.5a3,3,0,1,0,3,3,3,3,0,0,0-3-3Z" transform="translate(0.14154 0.21231)"/>
    <path class="a77a26af-caf0-4c05-83bc-cf10d37b5999" d="M63,162.5a1.5,1.5,0,1,1-1.5,1.5,1.5017,1.5017,0,0,1,1.5-1.5m0-.5a2,2,0,1,0,2,2,2,2,0,0,0-2-2Z" transform="translate(0.14154 0.21231)"/>
    <path class="a77a26af-caf0-4c05-83bc-cf10d37b5999" d="M77,166.5a2.5,2.5,0,1,1-2.5,2.5,2.50285,2.50285,0,0,1,2.5-2.5m0-.5a3,3,0,1,0,3,3,3,3,0,0,0-3-3Z" transform="translate(0.14154 0.21231)"/>
    <path class="a77a26af-caf0-4c05-83bc-cf10d37b5999" d="M77,167.5a1.5,1.5,0,1,1-1.5,1.5,1.5017,1.5017,0,0,1,1.5-1.5m0-.5a2,2,0,1,0,2,2,2,2,0,0,0-2-2Z" transform="translate(0.14154 0.21231)"/>
    <path class="a77a26af-caf0-4c05-83bc-cf10d37b5999" d="M224,202.5a2.5,2.5,0,1,1-2.5,2.5,2.50284,2.50284,0,0,1,2.5-2.5m0-.5a3,3,0,1,0,3,3,3,3,0,0,0-3-3Z" transform="translate(0.14154 0.21231)"/>
    <path class="a77a26af-caf0-4c05-83bc-cf10d37b5999" d="M232,221.75a2.25,2.25,0,1,1-2.25,2.25,2.25255,2.25255,0,0,1,2.25-2.25m0-.75a3,3,0,1,0,3,3,3,3,0,0,0-3-3Z" transform="translate(0.14154 0.21231)"/>
    <path class="a77a26af-caf0-4c05-83bc-cf10d37b5999" d="M224,203.5a1.5,1.5,0,1,1-1.5,1.5,1.50171,1.50171,0,0,1,1.5-1.5m0-.5a2,2,0,1,0,2,2,2,2,0,0,0-2-2Z" transform="translate(0.14154 0.21231)"/>
    <path class="a77a26af-caf0-4c05-83bc-cf10d37b5999" d="M327,224.5a2.5,2.5,0,1,1-2.5,2.5,2.50284,2.50284,0,0,1,2.5-2.5m0-.5a3,3,0,1,0,3,3,3,3,0,0,0-3-3Z" transform="translate(0.14154 0.21231)"/>
    <path class="a77a26af-caf0-4c05-83bc-cf10d37b5999" d="M327,225.5a1.5,1.5,0,1,1-1.5,1.5,1.50171,1.50171,0,0,1,1.5-1.5m0-.5a2,2,0,1,0,2,2,2,2,0,0,0-2-2Z" transform="translate(0.14154 0.21231)"/>
    <path class="a77a26af-caf0-4c05-83bc-cf10d37b5999" d="M246,195.5a2.5,2.5,0,1,1-2.5,2.5,2.50284,2.50284,0,0,1,2.5-2.5m0-.5a3,3,0,1,0,3,3,3,3,0,0,0-3-3Z" transform="translate(0.14154 0.21231)"/>
    <path class="a77a26af-caf0-4c05-83bc-cf10d37b5999" d="M234,96.5a2.5,2.5,0,1,1-2.5,2.5,2.50283,2.50283,0,0,1,2.5-2.5m0-.5a3,3,0,1,0,3,3,3,3,0,0,0-3-3Z" transform="translate(0.14154 0.21231)"/>
    <path class="a77a26af-caf0-4c05-83bc-cf10d37b5999" d="M243,118.5a2.5,2.5,0,1,1-2.5,2.5,2.50283,2.50283,0,0,1,2.5-2.5m0-.5a3,3,0,1,0,3,3,3,3,0,0,0-3-3Z" transform="translate(0.14154 0.21231)"/>
    <path class="a77a26af-caf0-4c05-83bc-cf10d37b5999" d="M312,117.5a2.5,2.5,0,1,1-2.5,2.5,2.50283,2.50283,0,0,1,2.5-2.5m0-.5a3,3,0,1,0,3,3,3,3,0,0,0-3-3Z" transform="translate(0.14154 0.21231)"/>
    <path class="a77a26af-caf0-4c05-83bc-cf10d37b5999" d="M239.5,83.5a2,2,0,1,1-2,2,2.00226,2.00226,0,0,1,2-2m0-.5a2.5,2.5,0,1,0,2.5,2.5,2.5,2.5,0,0,0-2.5-2.5Z" transform="translate(0.14154 0.21231)"/>
    <path class="a77a26af-caf0-4c05-83bc-cf10d37b5999" d="M253,73.5a1.5,1.5,0,1,1-1.5,1.5,1.50171,1.50171,0,0,1,1.5-1.5m0-.5a2,2,0,1,0,2,2,2,2,0,0,0-2-2Z" transform="translate(0.14154 0.21231)"/>
    <path class="a77a26af-caf0-4c05-83bc-cf10d37b5999" d="M250,88a1,1,0,1,1-1,1,1.00114,1.00114,0,0,1,1-1m0-1a2,2,0,1,0,2,2,2,2,0,0,0-2-2Z" transform="translate(0.14154 0.21231)"/>
  </g>
</svg>
