<svg id="f323b3ac-8607-4161-9ccb-a813d21aab3c" data-name="Слой 1" xmlns="http://www.w3.org/2000/svg" viewBox="0 0 436.975 214.682">
  <defs>
    <style>
      .a8bbfbb8-9f55-41e3-b614-9629cff84ceb, .f846e8fa-ef16-4814-aaf9-25fce9f5b3e8, .ff606ab1-308c-4437-b91a-55e91dee172a {
        fill: none;
        stroke: #000;
        stroke-miterlimit: 10;
      }

      .f846e8fa-ef16-4814-aaf9-25fce9f5b3e8 {
        stroke-dasharray: 7.613 7.613;
      }

      .a8bbfbb8-9f55-41e3-b614-9629cff84ceb {
        stroke-dasharray: 8.348 8.348;
      }

      .a26dcdeb-6032-4f26-8ae5-67b08975951c, .b7dd5f55-f54a-493b-a8fc-e335a5a4f960 {
        font-size: 34px;
        font-family: TimesNewRomanPS-ItalicMT, Times New Roman;
        font-style: italic;
      }

      .a26dcdeb-6032-4f26-8ae5-67b08975951c {
        letter-spacing: -0.018em;
      }
    </style>
  </defs>
  <title>opticheskiy-dalnomer</title>
  <polygon class="ff606ab1-308c-4437-b91a-55e91dee172a" points="26.428 100.152 379.428 36.152 379.428 173.152 26.428 100.152"/>
  <g>
    <path class="ff606ab1-308c-4437-b91a-55e91dee172a" d="M388.926,162.146q-1.685,1.074-3.426,2.064v-4" transform="translate(-6.072 10.652)"/>
    <line class="f846e8fa-ef16-4814-aaf9-25fce9f5b3e8" x1="379.428" y1="163.249" x2="379.428" y2="45.249"/>
    <path class="ff606ab1-308c-4437-b91a-55e91dee172a" d="M385.5,30.79v-4q1.741.99,3.426,2.064" transform="translate(-6.072 10.652)"/>
    <path class="a8bbfbb8-9f55-41e3-b614-9629cff84ceb" d="M395.714,33.7a79,79,0,0,1-3.324,126.1" transform="translate(-6.072 10.652)"/>
  </g>
  <line class="ff606ab1-308c-4437-b91a-55e91dee172a" x1="26.428" y1="100.152" x2="379.428" y2="100.152"/>
  <path class="ff606ab1-308c-4437-b91a-55e91dee172a" d="M124.984,72.732s11.483,21.019,0,35.893" transform="translate(-6.072 10.652)"/>
  <text class="a26dcdeb-6032-4f26-8ae5-67b08975951c" transform="translate(1.664 111.256)">A</text>
  <text class="b7dd5f55-f54a-493b-a8fc-e335a5a4f960" transform="translate(261.664 96.256)">S</text>
  <text class="b7dd5f55-f54a-493b-a8fc-e335a5a4f960" transform="translate(426.664 111.256)">l</text>
  <text class="b7dd5f55-f54a-493b-a8fc-e335a5a4f960" transform="translate(375.664 204.256)">b</text>
  <text class="b7dd5f55-f54a-493b-a8fc-e335a5a4f960" transform="translate(375.664 28.256)">a</text>
  <text class="b7dd5f55-f54a-493b-a8fc-e335a5a4f960" transform="translate(81.664 149.256)">φ</text>
  <line class="ff606ab1-308c-4437-b91a-55e91dee172a" x1="122.928" y1="111.652" x2="100.928" y2="127.652"/>
</svg>
