<svg id="b3cf8d85-54d6-49a0-bd1e-580d9c6b4931" data-name="Слой 2" xmlns="http://www.w3.org/2000/svg" viewBox="0 0 462.073 333.754">
  <defs>
    <style>
      .ab006ea2-650c-4fd3-8077-fb72fa754651, .ac97b6fd-d0e5-4679-8d27-0c47d2f6b34a, .aece3ae1-6048-458a-a2f6-c8750ecb389c, .aefba137-bad1-47de-a068-f9d27ccf0073, .b4dd15e4-2877-4df6-a38a-600f7460f605, .b6dfafe2-f910-4bb0-a123-27ee9398c639, .f444acb5-5914-4ce8-ba84-31c59c2d45b2 {
        stroke: #000;
        stroke-miterlimit: 10;
      }

      .ab006ea2-650c-4fd3-8077-fb72fa754651, .ac97b6fd-d0e5-4679-8d27-0c47d2f6b34a, .aefba137-bad1-47de-a068-f9d27ccf0073, .b4dd15e4-2877-4df6-a38a-600f7460f605, .b6dfafe2-f910-4bb0-a123-27ee9398c639, .f444acb5-5914-4ce8-ba84-31c59c2d45b2 {
        stroke-width: 2px;
      }

      .ab006ea2-650c-4fd3-8077-fb72fa754651, .aefba137-bad1-47de-a068-f9d27ccf0073, .b4dd15e4-2877-4df6-a38a-600f7460f605, .f444acb5-5914-4ce8-ba84-31c59c2d45b2 {
        fill: none;
      }

      .ab006ea2-650c-4fd3-8077-fb72fa754651 {
        stroke-dasharray: 12.6 12.6;
      }

      .f444acb5-5914-4ce8-ba84-31c59c2d45b2 {
        stroke-dasharray: 11.889 11.889;
      }

      .aefba137-bad1-47de-a068-f9d27ccf0073 {
        stroke-dasharray: 10.6 10.6;
      }

      .ac97b6fd-d0e5-4679-8d27-0c47d2f6b34a {
        stroke-dasharray: 12;
      }

      .b50fde10-7a43-409f-bb5d-4c216a5b475e, .bad7273a-0350-4dd6-8df3-47836e7ffaf8, .e5099eee-11c9-4a50-abf7-2139b449263a, .e5283f65-60d3-4e11-9782-548bdbeba43b {
        font-size: 20px;
        font-family: TimesNewRomanPS-ItalicMT, Times New Roman;
        font-style: italic;
      }

      .eb55c736-e201-41cb-b0f9-e04964fd20dd {
        letter-spacing: -0.111em;
      }

      .b50fde10-7a43-409f-bb5d-4c216a5b475e {
        letter-spacing: -0.037em;
      }

      .bad7273a-0350-4dd6-8df3-47836e7ffaf8 {
        letter-spacing: -0.018em;
      }

      .e5283f65-60d3-4e11-9782-548bdbeba43b {
        letter-spacing: 0.092em;
      }
    </style>
  </defs>
  <title>Схема плановой и перспективной аэрофотосъемки</title>
  <line class="b6dfafe2-f910-4bb0-a123-27ee9398c639" x1="71.573" y1="293.215" x2="260.573" y2="293.215"/>
  <g>
    <line x1="461.573" y1="293.215" x2="260.573" y2="293.215"/>
    <g>
      <line class="b4dd15e4-2877-4df6-a38a-600f7460f605" x1="461.573" y1="293.215" x2="455.573" y2="293.215"/>
      <line class="ab006ea2-650c-4fd3-8077-fb72fa754651" x1="442.973" y1="293.215" x2="272.873" y2="293.215"/>
      <line class="b4dd15e4-2877-4df6-a38a-600f7460f605" x1="266.573" y1="293.215" x2="260.573" y2="293.215"/>
    </g>
  </g>
  <g>
    <line x1="462.073" y1="92.715" x2="129.073" y2="92.715"/>
    <g>
      <line class="b4dd15e4-2877-4df6-a38a-600f7460f605" x1="462.073" y1="92.715" x2="456.073" y2="92.715"/>
      <line class="f444acb5-5914-4ce8-ba84-31c59c2d45b2" x1="444.184" y1="92.715" x2="141.017" y2="92.715"/>
      <line class="b4dd15e4-2877-4df6-a38a-600f7460f605" x1="135.073" y1="92.715" x2="129.073" y2="92.715"/>
    </g>
  </g>
  <g>
    <line x1="6.573" y1="293.215" x2="71.573" y2="293.215"/>
    <g>
      <line class="b4dd15e4-2877-4df6-a38a-600f7460f605" x1="6.573" y1="293.215" x2="12.573" y2="293.215"/>
      <line class="aefba137-bad1-47de-a068-f9d27ccf0073" x1="23.173" y1="293.215" x2="60.273" y2="293.215"/>
      <line class="b4dd15e4-2877-4df6-a38a-600f7460f605" x1="65.573" y1="293.215" x2="71.573" y2="293.215"/>
    </g>
  </g>
  <line class="b6dfafe2-f910-4bb0-a123-27ee9398c639" x1="135.073" y1="21.715" x2="207.073" y2="21.715"/>
  <line class="b6dfafe2-f910-4bb0-a123-27ee9398c639" x1="374.073" y1="16.715" x2="433.073" y2="53.715"/>
  <line class="b6dfafe2-f910-4bb0-a123-27ee9398c639" x1="135.073" y1="21.715" x2="261.073" y2="293.715"/>
  <line class="b6dfafe2-f910-4bb0-a123-27ee9398c639" x1="207.073" y1="21.715" x2="72.073" y2="293.715"/>
  <line class="b6dfafe2-f910-4bb0-a123-27ee9398c639" x1="433.073" y1="53.715" x2="7.073" y2="293.715"/>
  <line class="b6dfafe2-f910-4bb0-a123-27ee9398c639" x1="374.073" y1="16.715" x2="339.073" y2="293.715"/>
  <line class="b6dfafe2-f910-4bb0-a123-27ee9398c639" x1="402.073" y1="33.715" x2="235.073" y2="293.715"/>
  <line class="b6dfafe2-f910-4bb0-a123-27ee9398c639" x1="169.073" y1="21.715" x2="169.073" y2="292.715"/>
  <line class="ac97b6fd-d0e5-4679-8d27-0c47d2f6b34a" x1="366.073" y1="93.715" x2="366.073" y2="292.715"/>
  <g>
    <line x1="452.073" y1="93.715" x2="452.073" y2="292.715"/>
    <g>
      <line class="b4dd15e4-2877-4df6-a38a-600f7460f605" x1="452.073" y1="110.02" x2="452.073" y2="276.411"/>
      <path d="M460,118.9l7.206,4.382.163-.246-4.667-11.75Q461.352,105.14,460,99q-1.35,6.141-2.7,12.281l-4.667,11.75.123.246Z" transform="translate(-7.927 -5.285)"/>
      <path d="M460,278.105l7.206-4.382.163.246-4.667,11.75Q461.352,291.86,460,298q-1.35-6.141-2.7-12.281l-4.667-11.75.123-.246Z" transform="translate(-7.927 -5.285)"/>
    </g>
  </g>
  <circle class="aece3ae1-6048-458a-a2f6-c8750ecb389c" cx="8.073" cy="293.715" r="7"/>
  <circle class="aece3ae1-6048-458a-a2f6-c8750ecb389c" cx="72.073" cy="293.715" r="7"/>
  <circle class="aece3ae1-6048-458a-a2f6-c8750ecb389c" cx="259.073" cy="293.715" r="7"/>
  <circle class="aece3ae1-6048-458a-a2f6-c8750ecb389c" cx="365.073" cy="91.715" r="7"/>
  <circle class="aece3ae1-6048-458a-a2f6-c8750ecb389c" cx="169.573" cy="92.215" r="7"/>
  <text class="e5099eee-11c9-4a50-abf7-2139b449263a" transform="translate(118.979 16.621)">b</text>
  <text class="e5099eee-11c9-4a50-abf7-2139b449263a" transform="translate(359.979 16.621)">b<tspan class="eb55c736-e201-41cb-b0f9-e04964fd20dd" x="10" y="0">’</tspan></text>
  <text class="e5099eee-11c9-4a50-abf7-2139b449263a" transform="translate(164.979 16.621)">o</text>
  <text class="e5099eee-11c9-4a50-abf7-2139b449263a" transform="translate(404.979 28.621)">o<tspan class="eb55c736-e201-41cb-b0f9-e04964fd20dd" x="10" y="0">’</tspan></text>
  <text class="e5099eee-11c9-4a50-abf7-2139b449263a" transform="translate(210.979 16.621)">a</text>
  <text class="e5099eee-11c9-4a50-abf7-2139b449263a" transform="translate(334.979 178.621)">α</text>
  <text class="e5099eee-11c9-4a50-abf7-2139b449263a" transform="translate(438.979 57.621)">a<tspan class="eb55c736-e201-41cb-b0f9-e04964fd20dd" x="10" y="0">’</tspan></text>
  <text class="e5099eee-11c9-4a50-abf7-2139b449263a" transform="translate(181.979 88.621)">S</text>
  <text class="e5099eee-11c9-4a50-abf7-2139b449263a" transform="translate(343.979 88.621)">S<tspan class="eb55c736-e201-41cb-b0f9-e04964fd20dd" x="10" y="0">’</tspan></text>
  <text class="b50fde10-7a43-409f-bb5d-4c216a5b475e" transform="translate(0.979 327.621)">A<tspan class="eb55c736-e201-41cb-b0f9-e04964fd20dd" x="11.475" y="0">’</tspan></text>
  <text class="bad7273a-0350-4dd6-8df3-47836e7ffaf8" transform="translate(61.979 327.621)">A</text>
  <text class="e5099eee-11c9-4a50-abf7-2139b449263a" transform="translate(160.979 327.621)">O</text>
  <text class="e5099eee-11c9-4a50-abf7-2139b449263a" transform="translate(219.979 327.621)">O<tspan class="eb55c736-e201-41cb-b0f9-e04964fd20dd" x="14.443" y="0">’</tspan></text>
  <text class="e5099eee-11c9-4a50-abf7-2139b449263a" transform="translate(258.979 327.621)">B</text>
  <text class="e5099eee-11c9-4a50-abf7-2139b449263a" transform="translate(445.061 206.216) rotate(-90)">H</text>
  <text class="e5099eee-11c9-4a50-abf7-2139b449263a" transform="translate(163.061 266.216) rotate(-90)">оптич. ось</text>
  <text class="e5099eee-11c9-4a50-abf7-2139b449263a" transform="matrix(0.542, -0.84, 0.84, 0.542, 259.315, 241.763)">оптич. ось</text>
  <text class="e5099eee-11c9-4a50-abf7-2139b449263a" transform="translate(373.979 288.621)">N</text>
  <text class="e5099eee-11c9-4a50-abf7-2139b449263a" transform="translate(329.979 327.621)">B<tspan class="eb55c736-e201-41cb-b0f9-e04964fd20dd" x="12.217" y="0">’</tspan></text>
  <text class="e5099eee-11c9-4a50-abf7-2139b449263a" transform="translate(176.979 49.621)">f</text>
  <text class="e5283f65-60d3-4e11-9782-548bdbeba43b" transform="translate(397.979 64.621)">f<tspan class="eb55c736-e201-41cb-b0f9-e04964fd20dd" x="7.393" y="0">’</tspan></text>
  <path class="b4dd15e4-2877-4df6-a38a-600f7460f605" d="M341.175,147.576c2.13,2.878,8.594,10.679,19.1,10.278,6.013-.23,11.035-3.059,14.039-5.144" transform="translate(-7.927 -5.285)"/>
  <path class="b4dd15e4-2877-4df6-a38a-600f7460f605" d="M335.437,154.982c2.628,2.987,10.566,11.107,22.954,11.114a33.275,33.275,0,0,0,16.376-4.637" transform="translate(-7.927 -5.285)"/>
</svg>
