<svg id="fa60af52-1dc7-45fa-b811-14b4991c894a" data-name="shema" xmlns="http://www.w3.org/2000/svg" viewBox="0 0 323.083 430.855">
  <defs>
    <style>
      .a8fafa15-ec1b-47c8-8205-1d2df8b69a5f, .e0d18269-9768-49ee-9828-8100d8ec7598, .f4976a9f-f88d-4d9e-b964-a3f92e3ec181, .f8fc4e22-3956-4859-a68c-5243cfb8f40a {
        fill: none;
      }

      .a640d25a-4552-4b7f-affb-de16268278d9, .a8fafa15-ec1b-47c8-8205-1d2df8b69a5f, .e0d18269-9768-49ee-9828-8100d8ec7598, .f4976a9f-f88d-4d9e-b964-a3f92e3ec181, .f8fc4e22-3956-4859-a68c-5243cfb8f40a {
        stroke: #000;
        stroke-miterlimit: 10;
      }

      .f8fc4e22-3956-4859-a68c-5243cfb8f40a {
        stroke-width: 2px;
      }

      .e0d18269-9768-49ee-9828-8100d8ec7598 {
        stroke-dasharray: 10.18 10.18;
      }

      .a8fafa15-ec1b-47c8-8205-1d2df8b69a5f {
        stroke-dasharray: 9;
      }

      .a640d25a-4552-4b7f-affb-de16268278d9 {
        fill: #fff;
      }

      .bd09aa80-0c17-4ffc-bc3a-b4826525abc2, .edcba1a6-9004-4903-8207-c305a086f684 {
        font-size: 28px;
      }

      .a49da054-9b2e-46f7-ab72-a650e00801d9, .abccb487-835a-4d37-ba04-7c7fd0f03448, .bd09aa80-0c17-4ffc-bc3a-b4826525abc2, .edcba1a6-9004-4903-8207-c305a086f684 {
        font-family: TimesNewRomanPSMT, Times New Roman;
      }

      .bd09aa80-0c17-4ffc-bc3a-b4826525abc2 {
        letter-spacing: -0.055em;
      }

      .abccb487-835a-4d37-ba04-7c7fd0f03448 {
        font-size: 23px;
        letter-spacing: 0.07em;
      }

      .ad6311fb-8c5b-43e3-9168-97d9795f5b2d {
        letter-spacing: 0.057em;
      }

      .a5d921d4-97cd-4e32-80f7-72e56dcb92b7 {
        letter-spacing: 0.057em;
      }

      .f2dc91e0-cd9e-46b7-a983-93882dd33d8a {
        letter-spacing: 0.07em;
      }

      .e56efb17-57ca-48d9-994c-ce85bdc830ca {
        letter-spacing: 0.082em;
      }

      .bfddb358-f0ec-41f1-95fc-74c49c7e36de {
        letter-spacing: 0.07em;
      }

      .a49da054-9b2e-46f7-ab72-a650e00801d9 {
        font-size: 30px;
      }
    </style>
  </defs>
  <title>skhema-panoramnoy-syemki</title>
  <line class="f4976a9f-f88d-4d9e-b964-a3f92e3ec181" x1="53" y1="394.845" x2="174" y2="178.845"/>
  <line class="f4976a9f-f88d-4d9e-b964-a3f92e3ec181" x1="174" y1="178.845" x2="167" y2="364.845"/>
  <line class="f4976a9f-f88d-4d9e-b964-a3f92e3ec181" x1="174" y1="178.845" x2="127" y2="327.845"/>
  <line class="f4976a9f-f88d-4d9e-b964-a3f92e3ec181" x1="53" y1="394.845" x2="127" y2="327.845"/>
  <line class="f8fc4e22-3956-4859-a68c-5243cfb8f40a" y1="395.845" x2="147" y2="395.845"/>
  <line class="f8fc4e22-3956-4859-a68c-5243cfb8f40a" x1="180.5" y1="395.845" x2="284" y2="395.845"/>
  <line class="f8fc4e22-3956-4859-a68c-5243cfb8f40a" x1="6" y1="328.845" x2="90" y2="328.845"/>
  <line class="f8fc4e22-3956-4859-a68c-5243cfb8f40a" x1="98" y1="328.845" x2="112" y2="328.845"/>
  <line class="f8fc4e22-3956-4859-a68c-5243cfb8f40a" x1="118" y1="328.845" x2="205" y2="328.845"/>
  <line class="f8fc4e22-3956-4859-a68c-5243cfb8f40a" x1="238" y1="328.845" x2="311" y2="328.845"/>
  <line class="f4976a9f-f88d-4d9e-b964-a3f92e3ec181" x1="62" y1="395.845" x2="135" y2="328.845"/>
  <g>
    <line class="f4976a9f-f88d-4d9e-b964-a3f92e3ec181" x1="112" y1="429.845" x2="303.878" y2="207.57"/>
    <path d="M307.15,209.807l-7.9-1.322.036-.278,10.65-5.553q4.784-3.577,9.567-7.154-2.841,5.254-5.681,10.509l-3.938,11.347-.241.1Z" transform="translate(-5.5 0.345)"/>
  </g>
  <line class="f4976a9f-f88d-4d9e-b964-a3f92e3ec181" x1="174" y1="178.845" x2="76" y2="93.845"/>
  <line class="f4976a9f-f88d-4d9e-b964-a3f92e3ec181" x1="174" y1="178.845" x2="200" y2="86.845"/>
  <line class="f4976a9f-f88d-4d9e-b964-a3f92e3ec181" x1="217" y1="102.845" x2="174" y2="178.845"/>
  <g>
    <line class="f4976a9f-f88d-4d9e-b964-a3f92e3ec181" x1="259" y1="31.845" x2="256.701" y2="35.713"/>
    <line class="e0d18269-9768-49ee-9828-8100d8ec7598" x1="251.501" y1="44.465" x2="222.899" y2="92.6"/>
    <line class="f4976a9f-f88d-4d9e-b964-a3f92e3ec181" x1="220.299" y1="96.976" x2="218" y2="100.845"/>
  </g>
  <line class="f4976a9f-f88d-4d9e-b964-a3f92e3ec181" x1="174" y1="178.845" x2="246" y2="155.845"/>
  <line class="a8fafa15-ec1b-47c8-8205-1d2df8b69a5f" x1="296" y1="140.845" x2="246" y2="155.845"/>
  <g>
    <path class="f4976a9f-f88d-4d9e-b964-a3f92e3ec181" d="M154.5,145c12.265-2.435,34-3.083,56.036,14.043" transform="translate(-5.5 0.345)"/>
    <path d="M156.8,144.565l1.5-5.272-.183-.06-6.557,4.953L144.335,148l8.163-.427,8.169.9.133-.119Z" transform="translate(-5.5 0.345)"/>
    <path d="M208.683,157.625l.885-5.41.191.023,3.824,7.274,4.917,6.53-7.2-3.863-7.772-2.668-.07-.164Z" transform="translate(-5.5 0.345)"/>
  </g>
  <circle class="a640d25a-4552-4b7f-affb-de16268278d9" cx="174" cy="177.845" r="6"/>
  <circle class="a640d25a-4552-4b7f-affb-de16268278d9" cx="168" cy="363.845" r="6"/>
  <path class="f8fc4e22-3956-4859-a68c-5243cfb8f40a" d="M94.694,61.127s20.953-6.876,48.543-3.622q2.189.258,4.43.6,1.694.262,3.415.578,1.413.261,2.841.559C191.815,67.166,237.949,95.981,260.5,183.5l67-54s-20.055-119.485-122-116c-117,4-157,117-157,117l65-30s1-33,33-43" transform="translate(-5.5 0.345)"/>
  <line class="f4976a9f-f88d-4d9e-b964-a3f92e3ec181" x1="196" y1="81.845" x2="257" y2="27.845"/>
  <line class="f4976a9f-f88d-4d9e-b964-a3f92e3ec181" x1="201" y1="85.845" x2="261" y2="29.845"/>
  <text class="bd09aa80-0c17-4ffc-bc3a-b4826525abc2" transform="translate(37.67 422.27)">A</text>
  <text class="edcba1a6-9004-4903-8207-c305a086f684" transform="translate(137.67 369.27)">N</text>
  <text class="edcba1a6-9004-4903-8207-c305a086f684" transform="translate(137.67 320.27)">B</text>
  <text class="edcba1a6-9004-4903-8207-c305a086f684" transform="translate(176.67 261.27)">H</text>
  <text class="abccb487-835a-4d37-ba04-7c7fd0f03448" transform="translate(149.47 420.333) rotate(-49)">Н<tspan class="ad6311fb-8c5b-43e3-9168-97d9795f5b2d" x="18.22" y="0">а</tspan><tspan x="29.735" y="0">пра</tspan><tspan class="ad6311fb-8c5b-43e3-9168-97d9795f5b2d" x="68.582" y="0">в</tspan><tspan x="80.749" y="0">ление п</tspan><tspan class="a5d921d4-97cd-4e32-80f7-72e56dcb92b7" x="166.589" y="0">о</tspan><tspan class="f2dc91e0-cd9e-46b7-a983-93882dd33d8a" x="179.396" y="0">ле</tspan><tspan class="e56efb17-57ca-48d9-994c-ce85bdc830ca" x="204.302" y="0">т</tspan><tspan class="bfddb358-f0ec-41f1-95fc-74c49c7e36de" x="216.244" y="0">а</tspan></text>
  <text class="edcba1a6-9004-4903-8207-c305a086f684" transform="translate(146.67 190.27)">S</text>
  <text class="edcba1a6-9004-4903-8207-c305a086f684" transform="translate(259.67 23.27)">b</text>
  <text class="edcba1a6-9004-4903-8207-c305a086f684" transform="translate(164.67 129.27)">β</text>
  <text class="a49da054-9b2e-46f7-ab72-a650e00801d9" transform="translate(175.67 97.27)">α</text>
</svg>
