<svg id="b66633c5-bd45-44fc-9735-6fa1997e3799" data-name="Слой 2" xmlns="http://www.w3.org/2000/svg" viewBox="0 0 399.74 170.003">
  <defs>
    <style>
      .a0503d99-7722-4fa0-b27f-e11b34fab11d, .a06b01f0-29eb-47d8-91bd-70fcd2708465, .a0c7886d-cb6a-4222-80b7-d542181d3ef7, .a1e32942-7bbd-4c1b-9224-b99a228034ea, .a9a8df91-e88d-420a-87ae-dc3a58c5cfe4, .b487c702-9ed9-40e3-9b2e-00d8bc7c4371, .b646f7d9-8f35-4138-99e2-5f25412d689e, .be4e7dc6-68c3-42ed-ad21-b676b08b6172 {
        fill: none;
      }

      .a0503d99-7722-4fa0-b27f-e11b34fab11d, .a06b01f0-29eb-47d8-91bd-70fcd2708465, .a1e32942-7bbd-4c1b-9224-b99a228034ea, .a9a8df91-e88d-420a-87ae-dc3a58c5cfe4, .ae44fbb3-4f55-47ce-bf39-75a83d12c8a7, .b34c1bcf-1ae6-448e-af24-31ca46bf64c1, .b646f7d9-8f35-4138-99e2-5f25412d689e, .be4e7dc6-68c3-42ed-ad21-b676b08b6172 {
        stroke: #000;
      }

      .a0503d99-7722-4fa0-b27f-e11b34fab11d, .a06b01f0-29eb-47d8-91bd-70fcd2708465, .a0c7886d-cb6a-4222-80b7-d542181d3ef7, .a1e32942-7bbd-4c1b-9224-b99a228034ea, .a9a8df91-e88d-420a-87ae-dc3a58c5cfe4, .aca11d97-4cee-4f74-9920-ba4d0a5a554d, .ae44fbb3-4f55-47ce-bf39-75a83d12c8a7, .b34c1bcf-1ae6-448e-af24-31ca46bf64c1, .b487c702-9ed9-40e3-9b2e-00d8bc7c4371, .b646f7d9-8f35-4138-99e2-5f25412d689e, .be4e7dc6-68c3-42ed-ad21-b676b08b6172 {
        stroke-miterlimit: 10;
      }

      .a1e32942-7bbd-4c1b-9224-b99a228034ea, .b487c702-9ed9-40e3-9b2e-00d8bc7c4371 {
        stroke-width: 0.5px;
      }

      .a0503d99-7722-4fa0-b27f-e11b34fab11d, .a0c7886d-cb6a-4222-80b7-d542181d3ef7, .aca11d97-4cee-4f74-9920-ba4d0a5a554d, .ae44fbb3-4f55-47ce-bf39-75a83d12c8a7 {
        stroke-width: 0.25px;
      }

      .a0c7886d-cb6a-4222-80b7-d542181d3ef7, .aca11d97-4cee-4f74-9920-ba4d0a5a554d, .b487c702-9ed9-40e3-9b2e-00d8bc7c4371 {
        stroke: #f15a24;
      }

      .a06b01f0-29eb-47d8-91bd-70fcd2708465 {
        stroke-dasharray: 6.551 6.551;
      }

      .b646f7d9-8f35-4138-99e2-5f25412d689e {
        stroke-dasharray: 7 7;
      }

      .a9a8df91-e88d-420a-87ae-dc3a58c5cfe4 {
        stroke-dasharray: 7;
      }

      .b516b3d7-98e5-4525-bdcc-7ed59b43ec19, .b62c22f1-5b2c-4f64-afae-b9d1c6b27066 {
        font-size: 21px;
        font-family: TimesNewRomanPS-ItalicMT, Times New Roman;
        font-style: italic;
      }

      .b62c22f1-5b2c-4f64-afae-b9d1c6b27066 {
        letter-spacing: -0.018em;
      }
    </style>
  </defs>
  <title>geliotrop</title>
  <rect class="be4e7dc6-68c3-42ed-ad21-b676b08b6172" x="61.677" y="143.307" width="317" height="10"/>
  <rect class="be4e7dc6-68c3-42ed-ad21-b676b08b6172" x="81.677" y="47.307" width="8" height="96"/>
  <path class="be4e7dc6-68c3-42ed-ad21-b676b08b6172" d="M91.5,53.226s26,3.274,28,33.274" transform="translate(-1.823 -3.193)"/>
  <path class="be4e7dc6-68c3-42ed-ad21-b676b08b6172" d="M91.5,59.509s23,5.991,21,26.991" transform="translate(-1.823 -3.193)"/>
  <ellipse class="a1e32942-7bbd-4c1b-9224-b99a228034ea" cx="135.177" cy="92.807" rx="4.5" ry="9.5"/>
  <line class="a1e32942-7bbd-4c1b-9224-b99a228034ea" x1="134.677" y1="83.307" x2="103.677" y2="83.307"/>
  <line class="a1e32942-7bbd-4c1b-9224-b99a228034ea" x1="103.677" y1="102.307" x2="134.677" y2="102.307"/>
  <path class="a1e32942-7bbd-4c1b-9224-b99a228034ea" d="M105.5,86.5s-4,2-4,9,3,9,4,10" transform="translate(-1.823 -3.193)"/>
  <line class="a1e32942-7bbd-4c1b-9224-b99a228034ea" x1="100.677" y1="99.307" x2="131.677" y2="99.307"/>
  <line class="a1e32942-7bbd-4c1b-9224-b99a228034ea" x1="102.677" y1="101.307" x2="133.677" y2="101.307"/>
  <line class="a1e32942-7bbd-4c1b-9224-b99a228034ea" x1="99.677" y1="95.307" x2="130.677" y2="95.307"/>
  <line class="a1e32942-7bbd-4c1b-9224-b99a228034ea" x1="100.677" y1="97.307" x2="131.677" y2="97.307"/>
  <g>
    <polyline class="a1e32942-7bbd-4c1b-9224-b99a228034ea" points="371.677 143.307 378.677 148.307 371.677 153.307"/>
    <polyline class="a1e32942-7bbd-4c1b-9224-b99a228034ea" points="356.177 143.307 363.177 148.307 356.177 153.307"/>
    <polyline class="a1e32942-7bbd-4c1b-9224-b99a228034ea" points="340.677 143.307 347.677 148.307 340.677 153.307"/>
    <polyline class="a1e32942-7bbd-4c1b-9224-b99a228034ea" points="325.177 143.307 332.177 148.307 325.177 153.307"/>
    <polyline class="a1e32942-7bbd-4c1b-9224-b99a228034ea" points="309.677 143.307 316.677 148.307 309.677 153.307"/>
    <polyline class="a1e32942-7bbd-4c1b-9224-b99a228034ea" points="294.177 143.307 301.177 148.307 294.177 153.307"/>
    <polyline class="a1e32942-7bbd-4c1b-9224-b99a228034ea" points="278.677 143.307 285.677 148.307 278.677 153.307"/>
    <polyline class="a1e32942-7bbd-4c1b-9224-b99a228034ea" points="263.177 143.307 270.177 148.307 263.177 153.307"/>
    <polyline class="a1e32942-7bbd-4c1b-9224-b99a228034ea" points="247.677 143.307 254.677 148.307 247.677 153.307"/>
    <polyline class="a1e32942-7bbd-4c1b-9224-b99a228034ea" points="232.177 143.307 239.177 148.307 232.177 153.307"/>
    <polyline class="a1e32942-7bbd-4c1b-9224-b99a228034ea" points="216.677 143.307 223.677 148.307 216.677 153.307"/>
    <polyline class="a1e32942-7bbd-4c1b-9224-b99a228034ea" points="201.177 143.307 208.177 148.307 201.177 153.307"/>
    <polyline class="a1e32942-7bbd-4c1b-9224-b99a228034ea" points="185.677 143.307 192.677 148.307 185.677 153.307"/>
    <polyline class="a1e32942-7bbd-4c1b-9224-b99a228034ea" points="170.177 143.307 177.177 148.307 170.177 153.307"/>
    <polyline class="a1e32942-7bbd-4c1b-9224-b99a228034ea" points="154.677 143.307 161.677 148.307 154.677 153.307"/>
    <polyline class="a1e32942-7bbd-4c1b-9224-b99a228034ea" points="139.177 143.307 146.177 148.307 139.177 153.307"/>
    <polyline class="a1e32942-7bbd-4c1b-9224-b99a228034ea" points="123.677 143.307 130.677 148.307 123.677 153.307"/>
    <polyline class="a1e32942-7bbd-4c1b-9224-b99a228034ea" points="108.177 143.307 115.177 148.307 108.177 153.307"/>
    <polyline class="a1e32942-7bbd-4c1b-9224-b99a228034ea" points="92.677 143.307 99.677 148.307 92.677 153.307"/>
    <polyline class="a1e32942-7bbd-4c1b-9224-b99a228034ea" points="77.177 143.307 84.177 148.307 77.177 153.307"/>
    <polyline class="a1e32942-7bbd-4c1b-9224-b99a228034ea" points="61.677 143.307 68.677 148.307 61.677 153.307"/>
  </g>
  <polygon class="a1e32942-7bbd-4c1b-9224-b99a228034ea" points="339.677 96.307 361.677 68.307 380.677 82.307 357.677 112.307 339.677 96.307"/>
  <polyline class="ae44fbb3-4f55-47ce-bf39-75a83d12c8a7" points="380.677 82.307 380.677 88.307 357.677 118.307 346.579 108.442 339.677 102.307 339.677 96.307 357.677 112.307"/>
  <polyline class="a0503d99-7722-4fa0-b27f-e11b34fab11d" points="368.177 104.611 368.177 131.807 346.177 115.807 346.177 105.807"/>
  <path class="a0c7886d-cb6a-4222-80b7-d542181d3ef7" d="M370,135" transform="translate(-1.823 -3.193)"/>
  <polygon class="ae44fbb3-4f55-47ce-bf39-75a83d12c8a7" points="368.177 132.22 372.177 129.22 372.177 99.807 368.177 99.807 368.177 132.22"/>
  <circle class="aca11d97-4cee-4f74-9920-ba4d0a5a554d" cx="359.677" cy="90.307" r="4.5"/>
  <g>
    <line class="be4e7dc6-68c3-42ed-ad21-b676b08b6172" x1="328.172" y1="52.372" x2="326.023" y2="49.609"/>
    <line class="a06b01f0-29eb-47d8-91bd-70fcd2708465" x1="322.001" y1="44.438" x2="291.837" y2="5.655"/>
    <line class="be4e7dc6-68c3-42ed-ad21-b676b08b6172" x1="289.826" y1="3.07" x2="287.677" y2="0.307"/>
    <path d="M328.893,54.148l-4.189.482.011.148,5.449,3.2L335,62q-1.351-2.838-2.7-5.677l-1.765-6.07-.125-.059Z" transform="translate(-1.823 -3.193)"/>
  </g>
  <g>
    <polyline class="b646f7d9-8f35-4138-99e2-5f25412d689e" points="277.829 90.307 359.677 90.307 334.677 60.307"/>
    <path d="M281.447,93.5l2.192-3.6-.123-.082-5.875,2.334L271.5,93.5l6.141,1.351,5.875,2.334.123-.062Z" transform="translate(-1.823 -3.193)"/>
  </g>
  <line class="a9a8df91-e88d-420a-87ae-dc3a58c5cfe4" x1="258.677" y1="90.307" x2="139.677" y2="90.307"/>
  <polygon class="a1e32942-7bbd-4c1b-9224-b99a228034ea" points="211.177 128.807 220.177 128.807 220.177 130.807 223.177 130.807 223.177 128.807 233.177 128.807 233.177 133.807 211.177 133.807 211.177 128.807"/>
  <path class="a1e32942-7bbd-4c1b-9224-b99a228034ea" d="M222,137" transform="translate(-1.823 -3.193)"/>
  <path class="b487c702-9ed9-40e3-9b2e-00d8bc7c4371" d="M222,146.5" transform="translate(-1.823 -3.193)"/>
  <line class="a1e32942-7bbd-4c1b-9224-b99a228034ea" x1="219.677" y1="143.807" x2="219.677" y2="133.807"/>
  <polyline class="a1e32942-7bbd-4c1b-9224-b99a228034ea" points="219.677 152.807 219.677 162.807 222.177 169.307 224.677 162.807 224.677 152.807"/>
  <line class="a1e32942-7bbd-4c1b-9224-b99a228034ea" x1="224.677" y1="133.807" x2="224.677" y2="143.807"/>
  <line class="a0503d99-7722-4fa0-b27f-e11b34fab11d" x1="220.677" y1="166.307" x2="224.677" y2="162.307"/>
  <line class="a0503d99-7722-4fa0-b27f-e11b34fab11d" x1="220.177" y1="163.807" x2="224.677" y2="159.307"/>
  <line class="a0503d99-7722-4fa0-b27f-e11b34fab11d" x1="219.427" y1="161.557" x2="224.427" y2="156.557"/>
  <line class="a0503d99-7722-4fa0-b27f-e11b34fab11d" x1="219.677" y1="158.307" x2="224.677" y2="153.307"/>
  <path class="a0503d99-7722-4fa0-b27f-e11b34fab11d" d="M28.875,53h14s10,8,10,20V91s-4,24-22,48v15h-2" transform="translate(-1.823 -3.193)"/>
  <path class="a0503d99-7722-4fa0-b27f-e11b34fab11d" d="M28.875,53H12S2,61,2,73V91s4,24,22,48v15h4.875" transform="translate(-1.823 -3.193)"/>
  <path class="a0503d99-7722-4fa0-b27f-e11b34fab11d" d="M29.97,60h10s.22.14.6.43A18.065,18.065,0,0,1,43.6,63.4a19.636,19.636,0,0,1,3.9,8.1,21.66,21.66,0,0,1,.47,4.5V94s-.17.54-.49,1.52c-.62,1.86-1.82,5.29-3.58,9.58-1.33,3.26-2.99,7.02-4.96,10.96a120.592,120.592,0,0,1-8.41,14.41q-1.245,1.8-2.56,3.53" transform="translate(-1.823 -3.193)"/>
  <path class="a0503d99-7722-4fa0-b27f-e11b34fab11d" d="M29.97,60H15a18.731,18.731,0,0,0-6.68,8.68A20.228,20.228,0,0,0,7,76V94s.51,1.69,1.52,4.48c.45,1.25.99,2.72,1.64,4.36.52,1.32,1.1,2.75,1.74,4.26.57,1.33,1.18,2.73,1.83,4.17.61,1.32,1.25,2.68,1.94,4.06.64,1.3,1.32,2.63,2.03,3.97.68,1.28,1.39,2.57,2.14,3.86q1.08,1.875,2.26,3.74,1.14,1.83,2.38,3.62Q25.7,132.29,27,134l.35.7.62-.7" transform="translate(-1.823 -3.193)"/>
  <circle class="be4e7dc6-68c3-42ed-ad21-b676b08b6172" cx="26.177" cy="88.807" r="10"/>
  <circle class="b34c1bcf-1ae6-448e-af24-31ca46bf64c1" cx="25.677" cy="88.307" r="3"/>
  <line class="a1e32942-7bbd-4c1b-9224-b99a228034ea" x1="29.057" y1="144.927" x2="23.177" y2="150.807"/>
  <line class="a1e32942-7bbd-4c1b-9224-b99a228034ea" x1="29.057" y1="138.927" x2="22.177" y2="145.807"/>
  <line class="a1e32942-7bbd-4c1b-9224-b99a228034ea" x1="35.227" y1="126.757" x2="22.177" y2="139.807"/>
  <polyline class="a1e32942-7bbd-4c1b-9224-b99a228034ea" points="42.307 113.677 28.707 127.277 25.177 130.807 21.327 134.657"/>
  <g>
    <line class="a1e32942-7bbd-4c1b-9224-b99a228034ea" x1="22.657" y1="127.327" x2="18.847" y2="131.137"/>
    <line class="a1e32942-7bbd-4c1b-9224-b99a228034ea" x1="46.597" y1="103.387" x2="37.117" y2="112.867"/>
  </g>
  <g>
    <line class="a1e32942-7bbd-4c1b-9224-b99a228034ea" x1="20.277" y1="123.707" x2="16.477" y2="127.507"/>
    <line class="a1e32942-7bbd-4c1b-9224-b99a228034ea" x1="49.457" y1="94.527" x2="42.077" y2="101.907"/>
  </g>
  <g>
    <line class="a1e32942-7bbd-4c1b-9224-b99a228034ea" x1="18.017" y1="119.967" x2="14.217" y2="123.767"/>
    <line class="a1e32942-7bbd-4c1b-9224-b99a228034ea" x1="51.057" y1="86.927" x2="45.657" y2="92.327"/>
  </g>
  <g>
    <line class="a1e32942-7bbd-4c1b-9224-b99a228034ea" x1="51.057" y1="80.927" x2="46.147" y2="85.837"/>
    <line class="a1e32942-7bbd-4c1b-9224-b99a228034ea" x1="15.877" y1="116.107" x2="12.057" y2="119.927"/>
  </g>
  <g>
    <line class="a1e32942-7bbd-4c1b-9224-b99a228034ea" x1="51.057" y1="74.927" x2="46.147" y2="79.837"/>
    <line class="a1e32942-7bbd-4c1b-9224-b99a228034ea" x1="13.847" y1="112.137" x2="10.027" y2="115.957"/>
  </g>
  <g>
    <line class="a1e32942-7bbd-4c1b-9224-b99a228034ea" x1="51.037" y1="68.947" x2="46.147" y2="73.837"/>
    <line class="a1e32942-7bbd-4c1b-9224-b99a228034ea" x1="11.907" y1="108.077" x2="8.097" y2="111.887"/>
  </g>
  <g>
    <line class="a1e32942-7bbd-4c1b-9224-b99a228034ea" x1="10.077" y1="103.907" x2="6.297" y2="107.687"/>
    <line class="a1e32942-7bbd-4c1b-9224-b99a228034ea" x1="50.207" y1="63.777" x2="45.677" y2="68.307"/>
  </g>
  <g>
    <line class="a1e32942-7bbd-4c1b-9224-b99a228034ea" x1="48.537" y1="59.447" x2="44.117" y2="63.867"/>
    <line class="a1e32942-7bbd-4c1b-9224-b99a228034ea" x1="8.337" y1="99.647" x2="4.627" y2="103.357"/>
  </g>
  <g>
    <line class="a1e32942-7bbd-4c1b-9224-b99a228034ea" x1="46.317" y1="55.667" x2="41.777" y2="60.207"/>
    <line class="a1e32942-7bbd-4c1b-9224-b99a228034ea" x1="6.697" y1="95.287" x2="3.087" y2="98.897"/>
  </g>
  <g>
    <line class="a1e32942-7bbd-4c1b-9224-b99a228034ea" x1="43.657" y1="52.327" x2="38.747" y2="57.237"/>
    <line class="a1e32942-7bbd-4c1b-9224-b99a228034ea" x1="5.177" y1="90.807" x2="1.707" y2="94.277"/>
  </g>
  <g>
    <line class="a1e32942-7bbd-4c1b-9224-b99a228034ea" x1="40.177" y1="49.807" x2="33.177" y2="56.807"/>
    <line class="a1e32942-7bbd-4c1b-9224-b99a228034ea" x1="5.177" y1="84.807" x2="0.507" y2="89.477"/>
  </g>
  <g>
    <line class="a1e32942-7bbd-4c1b-9224-b99a228034ea" x1="5.177" y1="78.807" x2="0.177" y2="83.807"/>
    <line class="a1e32942-7bbd-4c1b-9224-b99a228034ea" x1="34.177" y1="49.807" x2="27.177" y2="56.807"/>
  </g>
  <g>
    <line class="a1e32942-7bbd-4c1b-9224-b99a228034ea" x1="28.177" y1="49.807" x2="21.177" y2="56.807"/>
    <line class="a1e32942-7bbd-4c1b-9224-b99a228034ea" x1="5.177" y1="72.807" x2="0.177" y2="77.807"/>
  </g>
  <g>
    <line class="a1e32942-7bbd-4c1b-9224-b99a228034ea" x1="22.177" y1="49.807" x2="15.177" y2="56.807"/>
    <line class="a1e32942-7bbd-4c1b-9224-b99a228034ea" x1="6.497" y1="65.487" x2="0.177" y2="71.807"/>
  </g>
  <line class="a1e32942-7bbd-4c1b-9224-b99a228034ea" x1="16.177" y1="49.807" x2="0.647" y2="65.337"/>
  <line class="a1e32942-7bbd-4c1b-9224-b99a228034ea" x1="10.177" y1="49.807" x2="7.017" y2="52.967"/>
  <line class="a1e32942-7bbd-4c1b-9224-b99a228034ea" x1="35.917" y1="91.067" x2="28.437" y2="98.547"/>
  <line class="a1e32942-7bbd-4c1b-9224-b99a228034ea" x1="35.577" y1="85.407" x2="22.777" y2="98.207"/>
  <line class="a1e32942-7bbd-4c1b-9224-b99a228034ea" x1="33.247" y1="81.737" x2="19.107" y2="95.877"/>
  <line class="a1e32942-7bbd-4c1b-9224-b99a228034ea" x1="29.577" y1="79.407" x2="16.777" y2="92.207"/>
  <line class="a1e32942-7bbd-4c1b-9224-b99a228034ea" x1="23.917" y1="79.067" x2="16.437" y2="86.547"/>
  <rect class="a1e32942-7bbd-4c1b-9224-b99a228034ea" x="22.677" y="57.307" width="7" height="22"/>
  <line class="a1e32942-7bbd-4c1b-9224-b99a228034ea" x1="4.677" y1="90.807" x2="15.677" y2="90.807"/>
  <line class="a1e32942-7bbd-4c1b-9224-b99a228034ea" x1="45.677" y1="90.807" x2="35.677" y2="90.807"/>
  <line class="a1e32942-7bbd-4c1b-9224-b99a228034ea" x1="25.677" y1="98.307" x2="25.677" y2="130.307"/>
  <line class="a1e32942-7bbd-4c1b-9224-b99a228034ea" x1="29.677" y1="62.307" x2="24.677" y2="57.307"/>
  <line class="a1e32942-7bbd-4c1b-9224-b99a228034ea" x1="29.677" y1="68.307" x2="22.677" y2="61.307"/>
  <line class="a1e32942-7bbd-4c1b-9224-b99a228034ea" x1="29.677" y1="74.307" x2="22.677" y2="67.307"/>
  <line class="a1e32942-7bbd-4c1b-9224-b99a228034ea" x1="28.677" y1="79.307" x2="22.677" y2="73.307"/>
  <line class="a1e32942-7bbd-4c1b-9224-b99a228034ea" x1="45.677" y1="59.307" x2="61.677" y2="43.307"/>
  <line class="a1e32942-7bbd-4c1b-9224-b99a228034ea" x1="85.677" y1="70.307" x2="64.677" y2="43.307"/>
  <line class="a1e32942-7bbd-4c1b-9224-b99a228034ea" x1="117.677" y1="93.307" x2="139.677" y2="61.307"/>
  <line class="a1e32942-7bbd-4c1b-9224-b99a228034ea" x1="294.677" y1="122.307" x2="276.677" y2="148.307"/>
  <line class="a1e32942-7bbd-4c1b-9224-b99a228034ea" x1="205.677" y1="116.307" x2="217.677" y2="128.307"/>
  <line class="a1e32942-7bbd-4c1b-9224-b99a228034ea" x1="363.677" y1="84.307" x2="387.677" y2="63.307"/>
  <text class="b516b3d7-98e5-4525-bdcc-7ed59b43ec19" transform="translate(53.913 38.449)">C</text>
  <text class="b516b3d7-98e5-4525-bdcc-7ed59b43ec19" transform="translate(139.913 53.449)">D</text>
  <text class="b516b3d7-98e5-4525-bdcc-7ed59b43ec19" transform="translate(191.913 113.449)">E</text>
  <text class="b62c22f1-5b2c-4f64-afae-b9d1c6b27066" transform="translate(290.913 117.449)">A</text>
  <text class="b516b3d7-98e5-4525-bdcc-7ed59b43ec19" transform="translate(386.913 59.449)">B</text>
</svg>
